<svg width="105" height="64" viewBox="0 0 105 64" fill="none" xmlns="http://www.w3.org/2000/svg">
<rect width="105" height="64" fill="#F5F5F5"/>
<g id="Landing Page">
<rect width="1440" height="9942.49" transform="translate(-1163 -3420)" fill="#090D1E"/>
<g id="Section 4 - Why Choose This Program">
<rect width="1440" height="648" transform="translate(-1163 -207)" fill="url(#paint0_linear_1321_1081)"/>
<g id="Container">
<g id="Container_2" filter="url(#filter0_d_1321_1081)">
<path d="M-431 -31C-431 -31.5523 -430.552 -32 -430 -32H136C136.552 -32 137 -31.5523 137 -31V384C137 384.552 136.552 385 136 385H-430C-430.552 385 -431 384.552 -431 384V-31Z" fill="white" shape-rendering="crispEdges"/>
<g id="Frame 1948754995">
<g id="aws-logo-dark 1">
<g id="Group">
<path id="Vector" d="M38.209 26.5273C38.209 27.3504 38.2961 28.0178 38.4486 28.5072C38.6229 28.9968 38.8407 29.5307 39.1457 30.109C39.2546 30.2871 39.2981 30.465 39.2981 30.6207C39.2981 30.8433 39.1675 31.0657 38.8842 31.2882L37.5118 32.2225C37.3158 32.356 37.1198 32.4227 36.9455 32.4227C36.7277 32.4227 36.5099 32.3115 36.292 32.1113C35.987 31.7776 35.7256 31.4216 35.5077 31.0657C35.2899 30.6875 35.0721 30.2648 34.8324 29.7531C33.1333 31.7999 30.9985 32.8232 28.4279 32.8232C26.5981 32.8232 25.1385 32.2893 24.0711 31.2214C23.0037 30.1535 22.4591 28.7298 22.4591 26.9499C22.4591 25.059 23.1126 23.524 24.4415 22.3671C25.7703 21.2103 27.5348 20.6318 29.7785 20.6318C30.5192 20.6318 31.2816 20.6986 32.0877 20.8098C32.8937 20.9211 33.7215 21.099 34.5929 21.2993V19.6752C34.5929 17.9845 34.2443 16.8054 33.569 16.1157C32.8719 15.426 31.6955 15.0923 30.0182 15.0923C29.2557 15.0923 28.4715 15.1813 27.6655 15.3815C26.8595 15.5818 26.0753 15.8265 25.3128 16.1379C24.9643 16.2937 24.7029 16.3827 24.5504 16.4272C24.3979 16.4717 24.289 16.4939 24.2018 16.4939C23.8969 16.4939 23.7444 16.2714 23.7444 15.8042V14.7141C23.7444 14.3582 23.7879 14.0912 23.8969 13.9355C24.0058 13.7798 24.2018 13.624 24.5068 13.4683C25.2692 13.0679 26.1842 12.7342 27.2516 12.4672C28.319 12.178 29.4518 12.0445 30.6499 12.0445C33.2422 12.0445 35.1375 12.6452 36.3574 13.8465C37.5555 15.0478 38.1654 16.8721 38.1654 19.3193V26.5273H38.209ZM29.3647 29.9088C30.0835 29.9088 30.8242 29.7754 31.6084 29.5084C32.3926 29.2415 33.0897 28.7519 33.6779 28.0846C34.0264 27.6619 34.2878 27.1948 34.4185 26.6608C34.5492 26.1269 34.6363 25.4817 34.6363 24.7253V23.7909C34.0047 23.6352 33.3293 23.5017 32.6323 23.4127C31.9352 23.3237 31.2599 23.2792 30.5846 23.2792C29.125 23.2792 28.0576 23.5684 27.3387 24.1691C26.6199 24.7698 26.2713 25.6152 26.2713 26.7275C26.2713 27.7731 26.5327 28.5517 27.0773 29.0857C27.6001 29.6419 28.3626 29.9088 29.3647 29.9088ZM46.8573 32.3115C46.4651 32.3115 46.2037 32.2448 46.0295 32.0891C45.8552 31.9555 45.7027 31.6442 45.572 31.2214L40.4527 14.0245C40.322 13.5795 40.2566 13.2903 40.2566 13.1346C40.2566 12.7786 40.431 12.5784 40.7795 12.5784H42.9143C43.3282 12.5784 43.6114 12.6452 43.764 12.8009C43.9382 12.9344 44.0689 13.2458 44.1996 13.6685L47.8593 28.3961L51.2576 13.6685C51.3666 13.2236 51.4972 12.9344 51.6715 12.8009C51.8457 12.6674 52.1508 12.5784 52.5429 12.5784H54.2856C54.6995 12.5784 54.9827 12.6452 55.157 12.8009C55.3312 12.9344 55.4838 13.2458 55.5709 13.6685L59.0127 28.574L62.7814 13.6685C62.9121 13.2236 63.0645 12.9344 63.217 12.8009C63.3913 12.6674 63.6745 12.5784 64.0667 12.5784H66.0925C66.441 12.5784 66.6371 12.7564 66.6371 13.1346C66.6371 13.2458 66.6154 13.3571 66.5936 13.4906C66.5718 13.624 66.5283 13.802 66.441 14.0467L61.1912 31.2437C61.0604 31.6886 60.908 31.9778 60.7337 32.1113C60.5595 32.2448 60.2763 32.3338 59.9059 32.3338H58.0325C57.6186 32.3338 57.3354 32.267 57.1611 32.1113C56.9868 31.9555 56.8343 31.6663 56.7472 31.2214L53.3707 16.8721L50.016 31.1992C49.907 31.6442 49.7763 31.9333 49.6021 32.0891C49.4277 32.2448 49.1228 32.3115 48.7307 32.3115H46.8573ZM74.8497 32.9121C73.717 32.9121 72.5842 32.7787 71.495 32.5117C70.4058 32.2448 69.5562 31.9555 68.9899 31.6219C68.6414 31.4216 68.4017 31.1992 68.3146 30.999C68.2275 30.7988 68.1838 30.5763 68.1838 30.376V29.2415C68.1838 28.7743 68.358 28.5517 68.6848 28.5517C68.8155 28.5517 68.9463 28.574 69.077 28.6185C69.2077 28.663 69.4038 28.7519 69.6216 28.841C70.3623 29.1747 71.1682 29.4417 72.0178 29.6196C72.8892 29.7977 73.7388 29.8866 74.6102 29.8866C75.9826 29.8866 77.0499 29.6419 77.7906 29.1524C78.5313 28.663 78.9234 27.951 78.9234 27.039C78.9234 26.416 78.7273 25.9044 78.3352 25.4817C77.943 25.059 77.2024 24.6808 76.135 24.3248L72.9763 23.3237C71.3861 22.812 70.2097 22.0557 69.4909 21.0545C68.7719 20.0757 68.4017 18.9856 68.4017 17.8287C68.4017 16.8944 68.5977 16.0712 68.9899 15.3593C69.3819 14.6474 69.9048 14.0245 70.5584 13.535C71.2118 13.0234 71.9525 12.6452 72.8239 12.3782C73.6951 12.1112 74.6102 12 75.5687 12C76.0479 12 76.5489 12.0222 77.0282 12.089C77.5291 12.1557 77.9867 12.2447 78.4442 12.3337C78.8798 12.4449 79.2937 12.5562 79.6858 12.6897C80.0779 12.8231 80.3829 12.9566 80.6007 13.0901C80.9058 13.2681 81.1236 13.446 81.2543 13.6463C81.385 13.8243 81.4502 14.069 81.4502 14.3804V15.426C81.4502 15.8932 81.2761 16.1379 80.9493 16.1379C80.7751 16.1379 80.4917 16.049 80.1215 15.871C78.8798 15.2926 77.4857 15.0033 75.9389 15.0033C74.6973 15.0033 73.717 15.2036 73.0417 15.6263C72.3664 16.049 72.0178 16.6941 72.0178 17.6062C72.0178 18.2292 72.2357 18.7631 72.6713 19.1858C73.1071 19.6085 73.9131 20.0312 75.0675 20.4094L78.1609 21.4105C79.7293 21.9222 80.8622 22.6341 81.5375 23.5462C82.2128 24.4583 82.5395 25.5039 82.5395 26.6608C82.5395 27.6174 82.3434 28.4851 81.9731 29.2415C81.581 29.9979 81.0582 30.6652 80.3829 31.1992C79.7076 31.7553 78.9015 32.1557 77.9649 32.4451C76.9845 32.7564 75.9607 32.9121 74.8497 32.9121Z" fill="#1C1901"/>
<g id="Group_2">
<path id="Vector_2" d="M78.9669 43.7241C71.8001 49.1302 61.3873 52.0001 52.434 52.0001C39.8864 52.0001 28.5805 47.2615 20.0411 39.386C19.3658 38.763 19.9758 37.9177 20.7818 38.4072C30.0182 43.8799 41.4112 47.1947 53.1964 47.1947C61.1476 47.1947 69.8831 45.504 77.9213 42.0334C79.1195 41.4772 80.1434 42.8343 78.9669 43.7241Z" fill="#FF9900"/>
<path id="Vector_3" d="M81.9512 40.2536C81.0361 39.0523 75.8951 39.6751 73.5642 39.9644C72.8672 40.0534 72.7582 39.4304 73.39 38.9633C77.4853 36.0266 84.2167 36.872 85.0009 37.8509C85.7852 38.852 84.783 45.7263 80.949 49.0189C80.3608 49.5305 79.7945 49.2636 80.0559 48.5962C80.9273 46.3937 82.866 41.4326 81.9512 40.2536Z" fill="#FF9900"/>
</g>
</g>
</g>
</g>
</g>
</g>
</g>
</g>
<defs>
<filter id="filter0_d_1321_1081" x="-503" y="-104" width="712" height="561" filterUnits="userSpaceOnUse" color-interpolation-filters="sRGB">
<feFlood flood-opacity="0" result="BackgroundImageFix"/>
<feColorMatrix in="SourceAlpha" type="matrix" values="0 0 0 0 0 0 0 0 0 0 0 0 0 0 0 0 0 0 127 0" result="hardAlpha"/>
<feOffset/>
<feGaussianBlur stdDeviation="36"/>
<feComposite in2="hardAlpha" operator="out"/>
<feColorMatrix type="matrix" values="0 0 0 0 0 0 0 0 0 0 0 0 0 0 0 0 0 0 0.05 0"/>
<feBlend mode="normal" in2="BackgroundImageFix" result="effect1_dropShadow_1321_1081"/>
<feBlend mode="normal" in="SourceGraphic" in2="effect1_dropShadow_1321_1081" result="shape"/>
</filter>
<linearGradient id="paint0_linear_1321_1081" x1="720" y1="0" x2="720" y2="648" gradientUnits="userSpaceOnUse">
<stop stop-color="white"/>
<stop offset="1" stop-color="#F5F6F9"/>
</linearGradient>
</defs>
</svg>
