<svg width="221" height="102" viewBox="0 0 221 102" fill="none" xmlns="http://www.w3.org/2000/svg">
<g id="CareerTalk-Logo">
<g id="Group">
<path id="Vector" d="M200.457 33.3359C200.457 33.3359 200.52 33.3359 200.552 33.3359C200.552 33.4624 200.552 33.5889 200.552 33.7786V34.854C200.552 37.574 200.71 39.5349 201.058 40.9898H200.425V33.3042L200.457 33.3359ZM100.987 33.3359C100.987 33.3359 101.05 33.3359 101.082 33.3359C101.082 33.4624 101.082 33.5889 101.082 33.7786V34.854C101.082 37.574 101.24 39.5349 101.588 40.9898H100.955V33.3042L100.987 33.3359ZM220.287 40.2307C220.003 39.1237 219.908 37.3842 219.908 36.214V34.3796C219.908 31.2168 219.212 28.7182 217.757 26.8205C219.718 24.828 220.793 22.1712 220.793 19.0401C220.793 13.5684 216.777 7.17962 205.391 7.17962H184.801H181.638H117.244V10.5005C114.808 8.50799 111.14 7.17962 105.921 7.17962H81.6308V24.1954L76.0011 9.20381L75.242 7.148H53.1658L52.4383 9.26706L49.149 18.8503C47.9156 14.2643 43.5825 6.3573 28.591 6.3573C12.4291 6.3573 6.67285 16.2568 6.67285 25.5554C6.67285 37.321 15.1175 44.9116 28.2114 44.9116C33.9044 44.9116 38.1109 43.773 41.2105 42.0651L40.483 44.1526H60.4402L61.0411 41.7489L61.5155 39.7879H66.6709L67.2085 41.8121L67.8411 44.1526H81.6308H83.5285L83.655 91.5311H220.256V40.2307H220.287ZM46.5239 26.5042H30.6151L30.0775 28.9712C29.7296 30.4893 29.5398 30.4893 28.6542 30.4893C27.6421 30.4893 27.1044 28.8131 27.1044 25.5238C27.1044 23.6261 27.2942 20.4633 28.6542 20.4633C29.4765 20.4633 29.6347 20.4633 29.8877 21.9815L30.2989 24.6382H47.1881L46.5556 26.5042H46.5239Z" fill="black"/>
<path id="Vector_2" d="M200.331 33.2091C200.331 33.2091 200.394 33.2091 200.426 33.2091C200.426 33.3357 200.426 33.4622 200.426 33.6519V34.7273C200.426 37.4473 200.584 39.4082 200.932 40.8631H200.299V33.1775L200.331 33.2091ZM100.861 33.2091C100.861 33.2091 100.924 33.2091 100.956 33.2091C100.956 33.3357 100.956 33.4622 100.956 33.6519V34.7273C100.956 37.4473 101.114 39.4082 101.462 40.8631H100.829V33.1775L100.861 33.2091ZM220.161 40.104C219.877 38.997 219.782 37.2575 219.782 36.0873V34.2529C219.782 31.0901 219.086 28.5915 217.631 26.6938C219.592 24.7013 220.667 22.0445 220.667 18.9134C220.667 13.4417 216.651 7.05291 205.265 7.05291H184.675H181.512H117.118V10.3738C114.682 8.38128 111.014 7.05291 105.795 7.05291H81.5049V24.0687L75.8751 9.0771L75.116 7.02129H53.0398L52.3124 9.14035L49.0231 18.7236C47.7896 14.1376 43.4566 6.23059 28.465 6.23059C12.3031 6.23059 6.54688 16.1301 6.54688 25.4287C6.54688 37.1943 14.9915 44.7849 28.0854 44.7849C33.7785 44.7849 37.985 43.6463 41.0845 41.9384L40.357 44.0259H60.3142L60.9151 41.6222L61.3896 39.6612H66.5449L67.0826 41.6854L67.7151 44.0259H81.5049H83.4025L83.5291 91.4044H220.13V40.104H220.161ZM46.398 26.3775H30.4892L29.9515 28.8445C29.6036 30.3626 29.4138 30.3626 28.5282 30.3626C27.5161 30.3626 26.9785 28.6864 26.9785 25.3971C26.9785 23.4994 27.1682 20.3366 28.5282 20.3366C29.3506 20.3366 29.5087 20.3366 29.7617 21.8547L30.1729 24.5115H47.0621L46.4296 26.3775H46.398Z" fill="black"/>
<path id="Vector_3" d="M200.204 33.0829C200.204 33.0829 200.267 33.0829 200.299 33.0829C200.299 33.2094 200.299 33.3359 200.299 33.5257V34.6011C200.299 37.3211 200.457 39.282 200.805 40.7369H200.172V33.0513L200.204 33.0829ZM100.734 33.0829C100.734 33.0829 100.797 33.0829 100.829 33.0829C100.829 33.2094 100.829 33.3359 100.829 33.5257V34.6011C100.829 37.3211 100.987 39.282 101.335 40.7369H100.703V33.0513L100.734 33.0829ZM220.034 39.9778C219.75 38.8708 219.655 37.1313 219.655 35.9611V34.1266C219.655 30.9639 218.959 28.4653 217.504 26.5676C219.465 24.575 220.54 21.9183 220.54 18.7871C220.54 13.3155 216.524 6.92669 205.138 6.92669H184.548H181.385H116.991V10.2476C114.556 8.25506 110.887 6.92669 105.668 6.92669H81.3779V23.9425L75.7482 8.95088L74.9891 6.89507H52.9129L52.1854 9.01413L48.8961 18.5974C47.6626 14.0113 43.3296 6.10437 28.338 6.10437C12.1762 6.16763 6.41992 16.0671 6.41992 25.3341C6.41992 37.0997 14.8646 44.6903 27.9585 44.6903C33.6515 44.6903 37.858 43.5517 40.9575 41.8438L40.2301 43.9313H60.1873L60.7882 41.5276L61.2626 39.5666H66.4179L66.9556 41.5908L67.5882 43.9313H81.3779H83.2756L83.4021 91.3098H220.003V39.9778H220.034ZM46.271 26.2829H30.3622L29.8245 28.7499C29.4766 30.268 29.2869 30.268 28.4013 30.268C27.3892 30.268 26.8515 28.5918 26.8515 25.3025C26.8515 23.4048 27.0413 20.242 28.4013 20.242C29.2236 20.242 29.3817 20.242 29.6348 21.7602L30.0459 24.4169H46.9352L46.3026 26.2829H46.271Z" fill="black"/>
<path id="Vector_4" d="M200.079 32.9562C200.079 32.9562 200.142 32.9562 200.174 32.9562C200.174 33.0827 200.174 33.2092 200.174 33.399V34.4744C200.174 37.1943 200.332 39.1553 200.68 40.6102H200.047V32.9246L200.079 32.9562ZM100.609 32.9562C100.609 32.9562 100.672 32.9562 100.704 32.9562C100.704 33.0827 100.704 33.2092 100.704 33.399V34.4744C100.704 37.1943 100.862 39.1553 101.21 40.6102H100.578V32.9246L100.609 32.9562ZM219.909 39.8511C219.625 38.7441 219.53 37.0046 219.53 35.8344V33.9999C219.53 30.8371 218.834 28.3386 217.379 26.4409C219.34 24.4483 220.415 21.7916 220.415 18.6604C220.415 13.1888 216.399 6.79999 205.013 6.79999H184.423H181.26H116.866V10.1209C114.431 8.12836 110.762 6.79999 105.543 6.79999H81.2529V23.8158L75.6232 8.82417L74.8641 6.76836H52.7879L52.0604 8.88742L48.7711 18.4707C47.5376 13.8846 43.2046 5.97766 28.213 5.97766C12.0512 6.04092 6.29492 15.9404 6.29492 25.2074C6.29492 36.973 14.7396 44.5636 27.8335 44.5636C33.5265 44.5636 37.733 43.425 40.8325 41.7171L40.1051 43.8046H60.0623L60.6632 41.4009L61.1376 39.4399H66.2929L66.8306 41.4641L67.4632 43.8046H81.2529H83.1506L83.2771 91.1831H219.878V39.8511H219.909ZM46.146 26.1562H30.2372L29.6995 28.6232C29.3516 30.1413 29.1619 30.1413 28.2763 30.1413C27.2642 30.1413 26.7265 28.4651 26.7265 25.1758C26.7265 23.2781 26.9163 20.1153 28.2763 20.1153C29.0986 20.1153 29.2567 20.1153 29.5098 21.6334L29.9209 24.2902H46.8102L46.1776 26.1562H46.146Z" fill="black"/>
<path id="Vector_5" d="M199.951 32.8296C199.951 32.8296 200.014 32.8296 200.046 32.8296C200.046 32.9561 200.046 33.0827 200.046 33.2724V34.3478C200.046 37.0678 200.204 39.0287 200.552 40.4836H199.92V32.798L199.951 32.8296ZM100.45 32.8296C100.45 32.8296 100.513 32.8296 100.545 32.8296C100.545 32.9561 100.545 33.0827 100.545 33.2724V34.3478C100.545 37.0678 100.703 39.0287 101.051 40.4836H100.418V32.798L100.45 32.8296ZM219.782 39.7245C219.497 38.6175 219.402 36.878 219.402 35.7078V33.8733C219.402 30.7106 218.706 28.212 217.252 26.3143C219.213 24.3217 220.288 21.665 220.288 18.5338C220.288 13.0622 216.271 6.6734 204.885 6.6734H184.295H181.133H116.738V9.99432C114.303 8.00177 110.634 6.6734 105.416 6.6734H81.1254V23.6892L75.4956 8.69758L74.7365 6.64177H52.6603L51.9329 8.76084L48.6436 18.3441C47.4101 13.758 43.0771 5.85107 28.0855 5.85107C11.892 5.91433 6.13574 15.8138 6.13574 25.0808C6.13574 36.8464 14.5804 44.437 27.6743 44.437C33.3673 44.437 37.5738 43.2984 40.6734 41.5905L39.9459 43.678H59.9031L60.504 41.2743L60.9784 39.3133H66.1338L66.6714 41.3375L67.304 43.678H81.0937H82.9914L83.1179 91.0565H219.719V39.7245H219.782ZM46.0185 26.0296H30.1096L29.572 28.4966C29.2241 30.0147 29.0343 30.0148 28.1487 30.0148C27.1366 30.0148 26.599 28.3385 26.599 25.0492C26.599 23.1515 26.7887 19.9887 28.1487 19.9887C28.971 19.9887 29.1292 19.9887 29.3822 21.5069L29.7934 24.1636H46.6826L46.0501 26.0296H46.0185Z" fill="black"/>
<path id="Vector_6" d="M199.793 32.7034C199.793 32.7034 199.856 32.7034 199.887 32.7034C199.887 32.8299 199.887 32.9564 199.887 33.1462V34.2215C199.887 36.9415 200.046 38.9025 200.394 40.3573H199.761V32.6718L199.793 32.7034ZM100.323 32.7034C100.323 32.7034 100.386 32.7034 100.418 32.7034C100.418 32.8299 100.418 32.9564 100.418 33.1462V34.2215C100.418 36.9415 100.576 38.9025 100.924 40.3573H100.291V32.6718L100.323 32.7034ZM219.655 39.5983C219.37 38.4913 219.275 36.7518 219.275 35.5815V33.7471C219.275 30.5843 218.58 28.0857 217.125 26.1881C219.086 24.1955 220.161 21.5388 220.161 18.4076C220.161 12.936 216.144 6.54718 204.758 6.54718H184.168H181.006H116.611V9.8681C114.176 7.87555 110.507 6.54718 105.289 6.54718H80.9984V23.563L75.3687 8.57136L74.6096 6.51555H52.5334L51.8059 8.63462L48.5166 18.2179C47.2831 13.6318 42.9501 5.72485 27.9585 5.72485C11.7651 5.78811 6.00879 15.6876 6.00879 24.9546C6.00879 36.7201 14.4534 44.3108 27.5474 44.3108C33.2404 44.3108 37.4469 43.1722 40.5464 41.4643L39.819 43.5518H59.7761L60.3771 41.148L60.8515 39.1871H66.0068L66.5445 41.2113L67.177 43.5518H80.9668H82.8645L82.991 90.9303H219.592V39.5983H219.655ZM45.8915 25.9034H29.9827L29.445 28.3704C29.0971 29.8885 28.9073 29.8885 28.0218 29.8885C27.0097 29.8885 26.472 28.2123 26.472 24.923C26.472 23.0253 26.6618 19.8625 28.0218 19.8625C28.8441 19.8625 29.0022 19.8625 29.2553 21.3806L29.6664 24.0374H46.5557L45.9231 25.9034H45.8915Z" fill="black"/>
<path id="Vector_7" d="M199.667 32.5767C199.667 32.5767 199.73 32.5767 199.762 32.5767C199.762 32.7032 199.762 32.8297 199.762 33.0195V34.0948C199.762 36.8148 199.92 38.7758 200.268 40.2306H199.635V32.5451L199.667 32.5767ZM100.197 32.5767C100.197 32.5767 100.26 32.5767 100.292 32.5767C100.292 32.7032 100.292 32.8297 100.292 33.0195V34.0948C100.292 36.8148 100.45 38.7758 100.798 40.2306H100.165V32.5451L100.197 32.5767ZM219.529 39.4716C219.244 38.3646 219.149 36.6251 219.149 35.4548V33.6204C219.149 30.4576 218.454 27.959 216.999 26.0614C218.96 24.0688 220.035 21.4121 220.035 18.2809C220.035 12.8093 216.018 6.42047 204.632 6.42047H184.042H180.88H116.485V9.74139C114.05 7.74884 110.381 6.42047 105.163 6.42047H80.8724V23.4362L75.2427 8.44465L74.4836 6.38884H52.4074L51.6799 8.50791L48.3906 18.0911C47.1572 13.5051 42.8241 5.59814 27.8325 5.59814C11.6391 5.6614 5.88281 15.5609 5.88281 24.8595C5.88281 36.6251 14.3274 44.2157 27.4214 44.2157C33.1144 44.2157 37.3209 43.0771 40.4204 41.3692L39.693 43.4567H59.6502L60.2511 41.053L60.7255 39.092H65.8808L66.4185 41.1162L67.0511 43.4567H80.8408H82.7385L82.865 90.8352H219.466V39.4716H219.529ZM45.7655 25.7767H29.8567L29.319 28.2437C28.9711 29.7618 28.7814 29.7618 27.8958 29.7618C26.8837 29.7618 26.346 28.0855 26.346 24.7962C26.346 22.8986 26.5358 19.7358 27.8958 19.7358C28.7181 19.7358 28.8763 19.7358 29.1293 21.2539L29.5404 23.9107H46.4297L45.7972 25.7767H45.7655Z" fill="black"/>
<path id="Vector_8" d="M199.54 32.4501C199.54 32.4501 199.603 32.4501 199.635 32.4501C199.635 32.5766 199.635 32.7031 199.635 32.8929V33.9682C199.635 36.6882 199.793 38.6492 200.141 40.104H199.508V32.4185L199.54 32.4501ZM100.07 32.4501C100.07 32.4501 100.133 32.4501 100.165 32.4501C100.165 32.5766 100.165 32.7031 100.165 32.8929V33.9682C100.165 36.6882 100.323 38.6492 100.671 40.104H100.038V32.4185L100.07 32.4501ZM219.402 39.345C219.117 38.238 219.022 36.4985 219.022 35.3282V33.4938C219.022 30.331 218.327 27.8324 216.872 25.9348C218.833 23.9422 219.908 21.2855 219.908 18.1543C219.908 12.6827 215.891 6.29388 204.505 6.29388H183.916H180.753H116.358V9.61481C113.923 7.62225 110.254 6.29388 105.036 6.29388H80.7455V23.3097L75.1157 8.31806L74.3567 6.26225H52.2804L51.553 8.38132L48.2637 17.9646C47.0302 13.3785 42.6972 5.47156 27.7056 5.47156C11.5121 5.53481 5.75586 15.4343 5.75586 24.7329C5.75586 36.4985 14.2005 44.0892 27.2944 44.0892C32.9874 44.0892 37.1939 42.9506 40.2935 41.2427L39.566 43.3301H59.5232L60.1241 40.9264L60.5985 38.9654H65.7539L66.2916 40.9896L66.9241 43.3301H80.7139H82.6115L82.738 90.7086H219.339V39.345H219.402ZM45.6069 25.6501H29.6981L29.1605 28.1171C28.8126 29.6352 28.6228 29.6352 27.7372 29.6352C26.7251 29.6352 26.1874 27.959 26.1874 24.6697C26.1874 22.772 26.3772 19.6092 27.7372 19.6092C28.5595 19.6092 28.7177 19.6092 28.9707 21.1273L29.3819 23.7841H46.2711L45.6386 25.6501H45.6069Z" fill="black"/>
<path id="Vector_9" d="M199.413 32.3235C199.413 32.3235 199.476 32.3235 199.508 32.3235C199.508 32.45 199.508 32.5765 199.508 32.7663V33.8417C199.508 36.5617 199.666 38.5226 200.014 39.9775H199.381V32.2919L199.413 32.3235ZM99.9431 32.3235C99.9431 32.3235 100.006 32.3235 100.038 32.3235C100.038 32.45 100.038 32.5765 100.038 32.7663V33.8417C100.038 36.5617 100.196 38.5226 100.544 39.9775H99.9115V32.2919L99.9431 32.3235ZM219.243 39.2184C218.959 38.1114 218.864 36.3719 218.864 35.2017V33.3672C218.864 30.2045 218.168 27.7059 216.713 25.8082C218.674 23.8156 219.749 21.1589 219.749 18.0277C219.749 12.5561 215.733 6.16729 204.347 6.16729H183.757H180.594H116.2V9.48822C113.765 7.49566 110.096 6.16729 104.877 6.16729H80.5869V23.1831L74.9571 8.19148L74.1981 6.13567H52.1218L51.3944 8.25473L48.1051 17.838C46.8716 13.2519 42.5386 5.34497 27.547 5.34497C11.3852 5.40823 5.62891 15.3077 5.62891 24.6063C5.62891 36.3719 14.0735 43.9626 27.1675 43.9626C32.8605 43.9626 37.067 42.824 40.1665 41.1161L39.4391 43.2035H59.3962L59.9972 40.7998L60.4716 38.8389H65.6269L66.1646 40.863L66.7972 43.2035H80.5869H82.4846L82.6111 90.582H219.212V39.2184H219.243ZM45.48 25.5235H29.5712L29.0335 27.9905C28.6856 29.5086 28.4958 29.5086 27.6103 29.5086C26.5982 29.5086 26.0605 27.8324 26.0605 24.5431C26.0605 22.6454 26.2503 19.4826 27.6103 19.4826C28.4326 19.4826 28.5907 19.4826 28.8437 21.0008L29.2549 23.6575H46.1442L45.5116 25.5235H45.48Z" fill="black"/>
<path id="Vector_10" d="M199.288 32.1972C199.288 32.1972 199.351 32.1972 199.383 32.1972C199.383 32.3237 199.383 32.4502 199.383 32.64V33.7153C199.383 36.4353 199.541 38.3962 199.889 39.8511H199.256V32.1656L199.288 32.1972ZM99.8181 32.1972C99.8181 32.1972 99.8814 32.1972 99.913 32.1972C99.913 32.3237 99.913 32.4502 99.913 32.64V33.7153C99.913 36.4353 100.071 38.3962 100.419 39.8511H99.7865V32.1656L99.8181 32.1972ZM219.118 39.0921C218.834 37.9851 218.739 36.2455 218.739 35.0753V33.2409C218.739 30.0781 218.043 27.5795 216.588 25.6818C218.549 23.6893 219.624 21.0325 219.624 17.9014C219.624 12.4298 215.608 6.04095 204.222 6.04095H183.632H180.469H116.075V9.36188C113.64 7.36932 109.971 6.04095 104.752 6.04095H80.4619V23.0567L74.8321 8.06513L74.0731 6.00932H51.9968L51.2694 8.12839L47.9801 17.7116C46.7466 13.1256 42.4136 5.21863 27.422 5.21863C11.2602 5.28188 5.50391 15.213 5.50391 24.48C5.50391 36.2455 13.9485 43.8362 27.0425 43.8362C32.7355 43.8362 36.942 42.6976 40.0415 40.9897L39.3141 43.0772H59.2712L59.8722 40.6734L60.3466 38.7125H65.5019L66.0396 40.7367L66.6722 43.0772H80.4619H82.3596L82.4861 90.4557H219.087V39.0921H219.118ZM45.355 25.3972H29.4462L28.9085 27.8642C28.5606 29.3823 28.3708 29.3823 27.4853 29.3823C26.4732 29.3823 25.9355 27.706 25.9355 24.4167C25.9355 22.5191 26.1253 19.3563 27.4853 19.3563C28.3076 19.3563 28.4657 19.3563 28.7187 20.8744L29.1299 23.5312H46.0192L45.3866 25.3972H45.355Z" fill="black"/>
<path id="Vector_11" d="M199.161 32.1022C199.161 32.1022 199.224 32.1022 199.256 32.1022C199.256 32.2287 199.256 32.3552 199.256 32.545V33.6204C199.256 36.3404 199.414 38.3013 199.762 39.7562H199.129V32.0706L199.161 32.1022ZM99.6912 32.1022C99.6912 32.1022 99.7544 32.1022 99.7861 32.1022C99.7861 32.2287 99.7861 32.3552 99.7861 32.545V33.6204C99.7861 36.3404 99.9442 38.3013 100.292 39.7562H99.6596V32.0706L99.6912 32.1022ZM218.991 38.9655C218.707 37.8585 218.612 36.119 218.612 34.9487V33.1143C218.612 29.9515 217.916 27.4529 216.461 25.5553C218.422 23.5627 219.497 20.906 219.497 17.7748C219.497 12.3032 215.481 5.91436 204.095 5.91436H183.505H180.342H115.948V9.23529C113.513 7.24273 109.844 5.91436 104.625 5.91436H80.3349V22.9301L74.7052 7.93855L73.9461 5.88274H51.8699L51.1424 8.0018L47.8531 17.585C46.6197 12.999 42.2866 5.09204 27.2951 5.09204C11.1332 5.1553 5.37695 15.0864 5.37695 24.3534C5.37695 36.119 13.8216 43.7096 26.9155 43.7096C32.6085 43.7096 36.815 42.571 39.9146 40.8631L39.1871 42.9506H59.1443L59.7452 40.5469L60.2196 38.5859H65.375L65.9126 40.6101L66.5452 42.9506H80.3349H82.2326L82.3591 90.3291H218.96V38.9655H218.991ZM45.228 25.2706H29.3192L28.7816 27.7376C28.4337 29.2557 28.2439 29.2557 27.3583 29.2557C26.3462 29.2557 25.8085 27.5794 25.8085 24.2901C25.8085 22.3925 25.9983 19.2297 27.3583 19.2297C28.1806 19.2297 28.3388 19.2297 28.5918 20.7478L29.003 23.4046H45.8922L45.2597 25.2706H45.228Z" fill="black"/>
<path id="Vector_12" d="M199.033 31.9756C199.033 31.9756 199.096 31.9756 199.128 31.9756C199.128 32.1021 199.128 32.2287 199.128 32.4184V33.4938C199.128 36.2138 199.286 38.1747 199.634 39.6296H199.002V31.944L199.033 31.9756ZM99.5636 31.9756C99.5636 31.9756 99.6269 31.9756 99.6585 31.9756C99.6585 32.1021 99.6585 32.2287 99.6585 32.4184V33.4938C99.6585 36.2138 99.8167 38.1747 100.165 39.6296H99.532V31.944L99.5636 31.9756ZM218.864 38.8389C218.579 37.7319 218.484 35.9924 218.484 34.8221V32.9877C218.484 29.8249 217.789 27.3263 216.334 25.4287C218.295 23.4361 219.37 20.7794 219.37 17.6482C219.37 12.1766 215.353 5.78778 203.967 5.78778H183.377H180.215H115.82V9.1087C113.385 7.11615 109.716 5.78778 104.498 5.78778H80.2074V22.8036L74.5776 7.81196L73.8186 5.75615H51.7423L51.0149 7.87522L47.7256 17.4585C46.4921 12.8724 42.1591 4.96545 27.1675 4.96545C11.0057 5.02871 5.21777 14.9599 5.21777 24.2268C5.21777 35.9924 13.6624 43.5831 26.7563 43.5831C32.4493 43.5831 36.6559 42.4445 39.7554 40.7365L39.0279 42.824H58.9851L59.586 40.4203L60.0605 38.4593H65.2158L65.7535 40.4835L66.386 42.824H80.1758H82.0734L82.2 90.2025H218.801V38.8389H218.864ZM45.1005 25.144H29.1917L28.654 27.611C28.3061 29.1291 28.1163 29.1291 27.2308 29.1291C26.2187 29.1291 25.681 27.4529 25.681 24.1636C25.681 22.2659 25.8708 19.1031 27.2308 19.1031C28.0531 19.1031 28.2112 19.1031 28.4642 20.6212L28.8754 23.278H45.7647L45.1321 25.144H45.1005Z" fill="black"/>
<path id="Vector_13" d="M198.907 31.8493C198.907 31.8493 198.97 31.8493 199.002 31.8493C199.002 31.9758 199.002 32.1023 199.002 32.2921V33.3674C199.002 36.0874 199.16 38.0484 199.508 39.5032H198.876V31.8177L198.907 31.8493ZM99.406 31.8493C99.406 31.8493 99.4693 31.8493 99.5009 31.8493C99.5009 31.9758 99.5009 32.1023 99.5009 32.2921V33.3674C99.5009 36.0874 99.6591 38.0484 100.007 39.5032H99.3744V31.8177L99.406 31.8493ZM218.738 38.7125C218.453 37.6056 218.358 35.866 218.358 34.6958V32.8614C218.358 29.6986 217.663 27.2 216.208 25.3023C218.169 23.3098 219.244 20.653 219.244 17.5219C219.244 12.0503 215.227 5.66144 203.841 5.66144H183.251H180.089H115.694V8.98236C113.259 6.9898 109.59 5.66144 104.372 5.66144H80.0814V22.6772L74.4517 7.68562L73.6926 5.62981H51.6164L50.8889 7.74887L47.5996 17.3321C46.3661 12.7461 42.0331 4.83911 27.0415 4.83911C10.8481 4.90237 5.0918 14.8335 5.0918 24.1005C5.0918 35.866 13.5364 43.4567 26.6304 43.4567C32.3234 43.4567 36.5299 42.3181 39.6294 40.6102L38.902 42.6976H58.8591L59.4601 40.2939L59.9345 38.333H65.0898L65.6275 40.3572L66.2601 42.6976H80.0498H81.9475L82.074 90.0762H218.675V38.7125H218.738ZM44.9745 25.0177H29.0657L28.528 27.4846C28.1801 29.0028 27.9904 29.0028 27.1048 29.0028C26.0927 29.0028 25.555 27.3265 25.555 24.0372C25.555 22.1395 25.7448 18.9768 27.1048 18.9768C27.9271 18.9768 28.0852 18.9768 28.3383 20.4949L28.7494 23.1516H45.6387L45.0061 25.0177H44.9745Z" fill="black"/>
<path id="Vector_14" d="M198.749 31.7227C198.749 31.7227 198.812 31.7227 198.844 31.7227C198.844 31.8492 198.844 31.9757 198.844 32.1655V33.2408C198.844 35.9608 199.002 37.9218 199.35 39.3766H198.717V31.6911L198.749 31.7227ZM99.2791 31.7227C99.2791 31.7227 99.3423 31.7227 99.374 31.7227C99.374 31.8492 99.374 31.9757 99.374 32.1655V33.2408C99.374 35.9608 99.5321 37.9218 99.88 39.3766H99.2475V31.6911L99.2791 31.7227ZM218.611 38.5859C218.326 37.479 218.231 35.7394 218.231 34.5692V32.7348C218.231 29.572 217.536 27.0734 216.081 25.1757C218.042 23.1832 219.117 20.5264 219.117 17.3953C219.117 11.9237 215.1 5.53485 203.714 5.53485H183.125H179.962H115.567V8.85577C113.132 6.86322 109.463 5.53485 104.245 5.53485H79.9545V22.5506L74.3247 7.55903L73.5656 5.50322H51.4894L50.762 7.62229L47.4727 17.2055C46.2392 12.6195 41.9062 4.71252 26.9146 4.71252C10.7211 4.77578 4.96484 14.7069 4.96484 23.9739C4.96484 35.7394 13.4095 43.3301 26.5034 43.3301C32.1964 43.3301 36.4029 42.1915 39.5025 40.4836L38.775 42.5711H58.7322L59.3331 40.1673L59.8075 38.2064H64.9629L65.5005 40.2306L66.1331 42.5711H79.9228H81.8205L81.947 89.9496H218.548V38.5859H218.611ZM44.8476 24.8911H28.9387L28.4011 27.3581C28.0532 28.8762 27.8634 28.8762 26.9778 28.8762C25.9657 28.8762 25.4281 27.1999 25.4281 23.9106C25.4281 22.013 25.6178 18.8502 26.9778 18.8502C27.8001 18.8502 27.9583 18.8502 28.2113 20.3683L28.6225 23.025H45.5117L44.8792 24.8911H44.8476Z" fill="black"/>
<path id="Vector_15" d="M198.622 31.596C198.622 31.596 198.685 31.596 198.717 31.596C198.717 31.7225 198.717 31.849 198.717 32.0388V33.1141C198.717 35.8341 198.875 37.7951 199.223 39.2499H198.59V31.5644L198.622 31.596ZM99.1521 31.596C99.1521 31.596 99.2154 31.596 99.247 31.596C99.247 31.7225 99.247 31.849 99.247 32.0388V33.1141C99.247 35.8341 99.4052 37.7951 99.7531 39.2499H99.1205V31.5644L99.1521 31.596ZM218.484 38.4592C218.199 37.3523 218.104 35.6127 218.104 34.4425V32.6081C218.104 29.4453 217.409 26.9467 215.954 25.049C217.915 23.0565 218.99 20.3997 218.99 17.2686C218.99 11.797 214.973 5.40814 203.587 5.40814H182.998H179.835H115.44V8.72906C113.005 6.73651 109.336 5.40814 104.118 5.40814H79.8275V22.4239L74.1978 7.43232L73.4387 5.37651H51.3625L50.635 7.49558L47.3457 17.0788C46.1122 12.4928 41.7792 4.58582 26.7876 4.58582C10.5942 4.6807 4.83789 14.5802 4.83789 23.8472C4.83789 35.6127 13.2825 43.2034 26.3765 43.2034C32.0695 43.2034 36.276 42.0648 39.3755 40.3569L38.6481 42.4443H58.6052L59.2062 40.0406L59.6806 38.0797H64.8359L65.3736 40.1039L66.0061 42.4443H79.7959H81.6936L81.8201 89.8229H218.421V38.4592H218.484ZM44.7206 24.7644H28.8118L28.2741 27.2314C27.9262 28.7495 27.7365 28.7495 26.8509 28.7495C25.8388 28.7495 25.3011 27.0732 25.3011 23.7839C25.3011 21.8862 25.4909 18.7235 26.8509 18.7235C27.6732 18.7235 27.8313 18.7235 28.0844 20.2416L28.4955 22.8983H45.3848L44.7522 24.7644H44.7206Z" fill="black"/>
<path id="Vector_16" d="M198.497 31.4699C198.497 31.4699 198.56 31.4699 198.592 31.4699C198.592 31.5964 198.592 31.7229 198.592 31.9127V32.988C198.592 35.708 198.75 37.6689 199.098 39.1238H198.465V31.4383L198.497 31.4699ZM99.0271 31.4699C99.0271 31.4699 99.0904 31.4699 99.122 31.4699C99.122 31.5964 99.122 31.7229 99.122 31.9127V32.988C99.122 35.708 99.2802 37.6689 99.6281 39.1238H98.9955V31.4383L99.0271 31.4699ZM218.327 38.3648C218.043 37.2578 217.948 35.5183 217.948 34.348V32.5136C217.948 29.3508 217.252 26.8522 215.797 24.9545C217.758 22.962 218.833 20.3053 218.833 17.1741C218.833 11.7025 214.817 5.31366 203.431 5.31366H182.841H179.678H115.284V8.63458C112.848 6.64203 109.18 5.31366 103.961 5.31366H79.6709V22.3294L74.0411 7.33784L73.2821 5.28203H51.2058L50.4784 7.40109L47.1891 16.9843C45.9556 12.3983 41.6226 4.49133 26.631 4.49133C10.4692 4.55459 4.71289 14.4541 4.71289 23.7211C4.71289 35.4866 13.1575 43.0773 26.2515 43.0773C31.9445 43.0773 36.151 41.9387 39.2505 40.2308L38.5231 42.3182H58.4802L59.0812 39.9145L59.5556 37.9536H64.7109L65.2486 39.9778L65.8811 42.3182H79.6709H81.5686L81.6951 89.6968H218.296V38.3648H218.327ZM44.564 24.6383H28.6552L28.1175 27.1052C27.7696 28.6234 27.5798 28.6234 26.6942 28.6234C25.6822 28.6234 25.1445 26.9471 25.1445 23.6578C25.1445 21.7601 25.3342 18.5974 26.6942 18.5974C27.5166 18.5974 27.6747 18.5974 27.9277 20.1155L28.3389 22.7722H45.2282L44.5956 24.6383H44.564Z" fill="black"/>
<path id="Vector_17" d="M198.371 31.3432C198.371 31.3432 198.434 31.3432 198.466 31.3432C198.466 31.4697 198.466 31.5962 198.466 31.786V32.8613C198.466 35.5813 198.624 37.5422 198.972 38.9971H198.339V31.3116L198.371 31.3432ZM98.9011 31.3432C98.9011 31.3432 98.9644 31.3432 98.996 31.3432C98.996 31.4697 98.996 31.5962 98.996 31.786V32.8613C98.996 35.5813 99.1542 37.5422 99.5021 38.9971H98.8695V31.3116L98.9011 31.3432ZM218.201 38.238C217.917 37.1311 217.822 35.3915 217.822 34.2213V32.3869C217.822 29.2241 217.126 26.7255 215.671 24.8278C217.632 22.8353 218.707 20.1785 218.707 17.0474C218.707 11.5758 214.691 5.18695 203.305 5.18695H182.715H179.552H115.158V8.50787C112.723 6.51532 109.054 5.18695 103.835 5.18695H79.5449V22.2027L73.9152 7.21113L73.1561 5.15532H51.0798L50.3524 7.27439L47.0631 16.8576C45.8296 12.2716 41.4966 4.36462 26.505 4.36462C10.3432 4.42788 4.58691 14.3274 4.58691 23.5944C4.58691 35.3599 13.0316 42.9506 26.1255 42.9506C31.8185 42.9506 36.025 41.812 39.1245 40.1041L38.3971 42.1915H58.3543L58.9552 39.7878L59.4296 37.8269H64.5849L65.1226 39.8511L65.7552 42.1915H79.5449H81.4426L81.5691 89.57H218.17V38.238H218.201ZM44.438 24.5116H28.5292L27.9915 26.9785C27.6436 28.4967 27.4538 28.4967 26.5683 28.4967C25.5562 28.4967 25.0185 26.8204 25.0185 23.5311C25.0185 21.6334 25.2083 18.4706 26.5683 18.4706C27.3906 18.4706 27.5487 18.4706 27.8018 19.9888L28.2129 22.6455H45.1022L44.4696 24.5116H44.438Z" fill="black"/>
<path id="Vector_18" d="M198.244 31.2166C198.244 31.2166 198.307 31.2166 198.339 31.2166C198.339 31.3431 198.339 31.4696 198.339 31.6594V32.7347C198.339 35.4547 198.497 37.4157 198.845 38.8705H198.212V31.185L198.244 31.2166ZM98.7742 31.2166C98.7742 31.2166 98.8375 31.2166 98.8691 31.2166C98.8691 31.3431 98.8691 31.4696 98.8691 31.6594V32.7347C98.8691 35.4547 99.0272 37.4157 99.3751 38.8705H98.7426V31.185L98.7742 31.2166ZM218.074 38.1115C217.79 37.0045 217.695 35.265 217.695 34.0947V32.2603C217.695 29.0975 216.999 26.5989 215.544 24.7013C217.505 22.7087 218.58 20.052 218.58 16.9208C218.58 11.4492 214.564 5.06036 203.178 5.06036H182.588H179.425H115.031V8.38129C112.596 6.38873 108.927 5.06036 103.708 5.06036H79.418V22.0761L73.7882 7.08454L73.0291 5.02873H50.9529L50.2255 7.1478L46.9362 16.731C45.7027 12.145 41.3697 4.23804 26.3781 4.23804C10.2162 4.30129 4.45996 14.2008 4.45996 23.4678C4.45996 35.2333 12.9046 42.824 25.9985 42.824C31.6915 42.824 35.898 41.6854 38.9976 39.9775L38.2701 42.0649H58.2273L58.8282 39.6612L59.3026 37.7003H64.458L64.9957 39.7245L65.6282 42.0649H79.418H81.3156L81.4421 89.4435H218.043V38.1115H218.074ZM44.311 24.4166H28.4022L27.8646 26.8836C27.5167 28.4017 27.3269 28.4017 26.4413 28.4017C25.4292 28.4017 24.8916 26.7254 24.8916 23.4361C24.8916 21.5385 25.0813 18.3757 26.4413 18.3757C27.2636 18.3757 27.4218 18.3757 27.6748 19.8938L28.086 22.5506H44.9752L44.3427 24.4166H44.311Z" fill="black"/>
<path id="Vector_19" d="M198.116 31.0904C198.116 31.0904 198.179 31.0904 198.211 31.0904C198.211 31.2169 198.211 31.3434 198.211 31.5332V32.6085C198.211 35.3285 198.369 37.2894 198.717 38.7443H198.085V31.0587L198.116 31.0904ZM98.6466 31.0904C98.6466 31.0904 98.7099 31.0904 98.7415 31.0904C98.7415 31.2169 98.7415 31.3434 98.7415 31.5332V32.6085C98.7415 35.3285 98.8997 37.2894 99.2476 38.7443H98.615V31.0587L98.6466 31.0904ZM217.947 37.9852C217.662 36.8783 217.567 35.1387 217.567 33.9685V32.1341C217.567 28.9713 216.872 26.4727 215.417 24.575C217.378 22.5825 218.453 19.9257 218.453 16.7946C218.453 11.323 214.436 4.93414 203.05 4.93414H182.46H179.298H114.903V8.25506C112.468 6.26251 108.799 4.93414 103.581 4.93414H79.2904V21.9499L73.6606 6.95832L72.9016 4.90251H50.8253L50.0979 7.02158L46.8086 16.6048C45.5751 12.0188 41.2421 4.11182 26.2505 4.11182C10.0887 4.17507 4.30078 14.0746 4.30078 23.3415C4.30078 35.1071 12.7454 42.6978 25.8393 42.6978C31.5324 42.6978 35.7389 41.5592 38.8384 39.8513L38.111 41.9387H58.0681L58.669 39.535L59.1435 37.5741H64.2988L64.8365 39.5983L65.469 41.9387H79.2588H81.1564L81.283 89.3172H217.884V37.9852H217.947ZM44.1835 24.2904H28.2747L27.737 26.7574C27.3891 28.2755 27.1993 28.2755 26.3138 28.2755C25.3017 28.2755 24.764 26.5992 24.764 23.3099C24.764 21.4122 24.9538 18.2495 26.3138 18.2495C27.1361 18.2495 27.2942 18.2495 27.5472 19.7676L27.9584 22.4243H44.8477L44.2151 24.2904H44.1835Z" fill="black"/>
<path id="Vector_20" d="M197.99 30.9637C197.99 30.9637 198.053 30.9637 198.085 30.9637C198.085 31.0902 198.085 31.2167 198.085 31.4065V32.4818C198.085 35.2018 198.243 37.1627 198.591 38.6176H197.959V30.932L197.99 30.9637ZM98.489 30.9637C98.489 30.9637 98.5523 30.9637 98.5839 30.9637C98.5839 31.0902 98.5839 31.2167 98.5839 31.4065V32.4818C98.5839 35.2018 98.7421 37.1627 99.09 38.6176H98.4574V30.932L98.489 30.9637ZM217.821 37.8585C217.536 36.7516 217.441 35.012 217.441 33.8418V32.0074C217.441 28.8446 216.746 26.346 215.291 24.4483C217.252 22.4558 218.327 19.799 218.327 16.6679C218.327 11.1963 214.31 4.80743 202.924 4.80743H182.334H179.172H114.777V8.12836C112.342 6.1358 108.673 4.80743 103.455 4.80743H79.1644V21.8232L73.5347 6.83161L72.7756 4.7758H50.6994L49.9719 6.89487L46.6826 16.4781C45.4491 11.8921 41.1161 3.98511 26.1245 3.98511C9.93107 4.04836 4.1748 13.9479 4.1748 23.2148C4.1748 34.9804 12.6194 42.5711 25.7134 42.5711C31.4064 42.5711 35.6129 41.4325 38.7124 39.7246L37.985 41.812H57.9421L58.5431 39.4083L59.0175 37.4474H64.1728L64.7105 39.4716L65.3431 41.812H79.1328H81.0305L81.157 89.1905H217.758V37.8585H217.821ZM44.0575 24.1637H28.1487L27.611 26.6306C27.2631 28.1488 27.0734 28.1488 26.1878 28.1488C25.1757 28.1488 24.638 26.4725 24.638 23.1832C24.638 21.2855 24.8278 18.1228 26.1878 18.1228C27.0101 18.1228 27.1682 18.1228 27.4213 19.6409L27.8324 22.2976H44.7217L44.0891 24.1637H44.0575Z" fill="black"/>
<path id="Vector_21" d="M197.832 30.8371C197.832 30.8371 197.895 30.8371 197.927 30.8371C197.927 30.9636 197.927 31.0901 197.927 31.2799V32.3552C197.927 35.0752 198.085 37.0361 198.433 38.491H197.8V30.8054L197.832 30.8371ZM98.3621 30.8371C98.3621 30.8371 98.4253 30.8371 98.457 30.8371C98.457 30.9636 98.457 31.0901 98.457 31.2799V32.3552C98.457 35.0752 98.6151 37.0361 98.963 38.491H98.3305V30.8054L98.3621 30.8371ZM217.694 37.7319C217.409 36.625 217.314 34.8854 217.314 33.7152V31.8808C217.314 28.718 216.619 26.2194 215.164 24.3217C217.125 22.3292 218.2 19.6724 218.2 16.5413C218.2 11.0697 214.183 4.68084 202.797 4.68084H182.208H179.045H114.65V8.00177C112.215 6.00921 108.546 4.68084 103.328 4.68084H79.0375V21.6966L73.4077 6.70503L72.6486 4.64922H50.5724L49.845 6.76828L46.5557 16.3515C45.3222 11.7655 40.9892 3.85852 25.9976 3.85852C9.80412 3.92178 4.04785 13.8213 4.04785 23.0883C4.04785 34.8538 12.4925 42.4445 25.5864 42.4445C31.2794 42.4445 35.4859 41.3059 38.5855 39.598L37.858 41.6854H57.8152L58.4161 39.2817L58.8905 37.3208H64.0459L64.5835 39.345L65.2161 41.6854H79.0058H80.9035L81.03 89.0639H217.631V37.7319H217.694ZM43.9306 24.0371H28.0218L27.4841 26.5041C27.1362 28.0222 26.9464 28.0222 26.0608 28.0222C25.0487 28.0222 24.5111 26.3459 24.5111 23.0566C24.5111 21.159 24.7008 17.9962 26.0608 17.9962C26.8832 17.9962 27.0413 17.9962 27.2943 19.5143L27.7055 22.171H44.5948L43.9622 24.0371H43.9306Z" fill="black"/>
<path id="Vector_22" d="M197.707 30.7109C197.707 30.7109 197.77 30.7109 197.802 30.7109C197.802 30.8374 197.802 30.9639 197.802 31.1536V32.229C197.802 34.949 197.96 36.9099 198.308 38.3648H197.675V30.6792L197.707 30.7109ZM98.2371 30.7109C98.2371 30.7109 98.3003 30.7109 98.332 30.7109C98.332 30.8374 98.332 30.9639 98.332 31.1536V32.229C98.332 34.949 98.4901 36.9099 98.838 38.3648H98.2055V30.6792L98.2371 30.7109ZM217.569 37.6057C217.284 36.4987 217.189 34.7592 217.189 33.589V31.7546C217.189 28.5918 216.494 26.0932 215.039 24.1955C217 22.203 218.075 19.5462 218.075 16.4151C218.075 10.9434 214.058 4.55462 202.672 4.55462H182.083H178.92H114.525V7.87555C112.09 5.88299 108.421 4.55462 103.203 4.55462H78.9125V21.5704L73.2827 6.57881L72.5237 4.523H50.4474L49.72 6.64206L46.4307 16.2253C45.1972 11.6393 40.8642 3.7323 25.8726 3.7323C9.67912 3.79556 3.92285 13.6951 3.92285 22.9937C3.92285 34.7592 12.3675 42.3499 25.4614 42.3499C31.1544 42.3499 35.3609 41.2113 38.4605 39.5034L37.733 41.5908H57.6902L58.2911 39.1871L58.7655 37.2262H63.9209L64.4585 39.2504L65.0911 41.5908H78.8809H80.7785L80.905 88.9693H217.506V37.6057H217.569ZM43.8056 23.9109H27.8968L27.3591 26.3778C27.0112 27.896 26.8214 27.896 25.9358 27.896C24.9237 27.896 24.3861 26.2197 24.3861 22.9304C24.3861 21.0327 24.5758 17.8699 25.9358 17.8699C26.7582 17.8699 26.9163 17.8699 27.1693 19.3881L27.5805 22.0448H44.4698L43.8372 23.9109H43.8056Z" fill="black"/>
<path id="Vector_23" d="M197.58 30.5841C197.58 30.5841 197.643 30.5841 197.675 30.5841C197.675 30.7107 197.675 30.8372 197.675 31.0269V32.1023C197.675 34.8223 197.833 36.7832 198.181 38.2381H197.548V30.5525L197.58 30.5841ZM98.1101 30.5841C98.1101 30.5841 98.1734 30.5841 98.205 30.5841C98.205 30.7107 98.205 30.8372 98.205 31.0269V32.1023C98.205 34.8223 98.3632 36.7832 98.7111 38.2381H98.0785V30.5525L98.1101 30.5841ZM217.41 37.479C217.126 36.372 217.031 34.6325 217.031 33.4623V31.6279C217.031 28.4651 216.335 25.9665 214.88 24.0688C216.841 22.0763 217.916 19.4195 217.916 16.2884C217.916 10.8167 213.9 4.42791 202.514 4.42791H181.924H178.761H114.367V7.74884C111.932 5.75628 108.263 4.42791 103.044 4.42791H78.7539V21.4437L73.1241 6.4521L72.3651 4.39629H50.2888L49.5614 6.51535L46.2721 16.0986C45.0386 11.5126 40.7056 3.60559 25.714 3.60559C9.55217 3.66885 3.7959 13.5684 3.7959 22.867C3.7959 34.6325 12.2405 42.2232 25.3345 42.2232C31.0275 42.2232 35.234 41.0846 38.3335 39.3767L37.6061 41.4641H57.5632L58.1642 39.0604L58.6386 37.0995H63.7939L64.3316 39.1237L64.9642 41.4641H78.7539H80.6516L80.7781 88.8426H217.379V37.479H217.41ZM43.647 23.7842H27.7382L27.2005 26.2511C26.8526 27.7693 26.6628 27.7693 25.7773 27.7693C24.7652 27.7693 24.2275 26.093 24.2275 22.8037C24.2275 20.906 24.4173 17.7432 25.7773 17.7432C26.5996 17.7432 26.7577 17.7432 27.0107 19.2614L27.4219 21.9181H44.3112L43.6786 23.7842H43.647Z" fill="black"/>
<path id="Vector_24" d="M197.453 30.4576C197.453 30.4576 197.516 30.4576 197.548 30.4576C197.548 30.5841 197.548 30.7106 197.548 30.9003V31.9757C197.548 34.6957 197.706 36.6566 198.054 38.1115H197.421V30.4259L197.453 30.4576ZM97.9832 30.4576C97.9832 30.4576 98.0464 30.4576 98.0781 30.4576C98.0781 30.5841 98.0781 30.7106 98.0781 30.9003V31.9757C98.0781 34.6957 98.2362 36.6566 98.5841 38.1115H97.9516V30.4259L97.9832 30.4576ZM217.283 37.3524C216.999 36.2455 216.904 34.5059 216.904 33.3357V31.5013C216.904 28.3385 216.208 25.8399 214.753 23.9422C216.714 21.9497 217.789 19.2929 217.789 16.1618C217.789 10.6902 213.773 4.30133 202.387 4.30133H181.797H178.634H114.24V7.62225C111.805 5.6297 108.136 4.30133 102.917 4.30133H78.6269V21.3171L72.9972 6.32551L72.2381 4.2697H50.1619L49.4344 6.38877L46.1451 15.972C44.9117 11.386 40.5786 3.479 25.587 3.479C9.42521 3.54226 3.66895 13.4418 3.66895 22.7404C3.66895 34.5059 12.1136 42.0966 25.2075 42.0966C30.9005 42.0966 35.107 40.958 38.2066 39.2501L37.4791 41.3375H57.4363L58.0372 38.9338L58.5116 36.9729H63.667L64.2046 38.9971L64.8372 41.3375H78.6269H80.5246L80.6511 88.716H217.252V37.3524H217.283ZM43.52 23.6576H27.6112L27.0736 26.1245C26.7256 27.6427 26.5359 27.6427 25.6503 27.6427C24.6382 27.6427 24.1005 25.9664 24.1005 22.6771C24.1005 20.7794 24.2903 17.6167 25.6503 17.6167C26.4726 17.6167 26.6308 17.6167 26.8838 19.1348L27.2949 21.7915H44.1842L43.5517 23.6576H43.52Z" fill="black"/>
<path id="Vector_25" d="M197.327 30.3312C197.327 30.3312 197.39 30.3312 197.422 30.3312C197.422 30.4577 197.422 30.5842 197.422 30.774V31.8493C197.422 34.5693 197.58 36.5303 197.928 37.9852H197.295V30.2996L197.327 30.3312ZM97.8572 30.3312C97.8572 30.3312 97.9205 30.3312 97.9521 30.3312C97.9521 30.4577 97.9521 30.5842 97.9521 30.774V31.8493C97.9521 34.5693 98.1102 36.5303 98.4581 37.9852H97.8256V30.2996L97.8572 30.3312ZM217.157 37.2261C216.873 36.1191 216.778 34.3796 216.778 33.2093V31.3749C216.778 28.2121 216.082 25.7135 214.627 23.8159C216.588 21.8233 217.663 19.1666 217.663 16.0354C217.663 10.5638 213.647 4.17499 202.261 4.17499H181.671H178.508H114.114V7.49591C111.679 5.50335 108.01 4.17499 102.791 4.17499H78.501V21.1908L72.8712 6.19917L72.1121 4.14336H50.0359L49.3085 6.26242L46.0192 15.8457C44.7857 11.2596 40.4527 3.35266 25.4611 3.35266C9.29924 3.41592 3.54297 13.3471 3.54297 22.614C3.54297 34.3796 11.9876 41.9703 25.0815 41.9703C30.7745 41.9703 34.981 40.8317 38.0806 39.1238L37.3531 41.2112H57.3103L57.9112 38.8075L58.3856 36.8465H63.541L64.0787 38.8707L64.7112 41.2112H78.501H80.3986L80.5251 88.5897H217.126V37.2261H217.157ZM43.3941 23.5312H27.4852L26.9476 25.9982C26.5997 27.5163 26.4099 27.5163 25.5243 27.5163C24.5122 27.5163 23.9746 25.8401 23.9746 22.5508C23.9746 20.6531 24.1643 17.4903 25.5243 17.4903C26.3466 17.4903 26.5048 17.4903 26.7578 19.0084L27.169 21.6652H44.0582L43.4257 23.5312H43.3941Z" fill="black"/>
<path id="Vector_26" d="M197.2 30.2363C197.2 30.2363 197.263 30.2363 197.295 30.2363C197.295 30.3628 197.295 30.4893 197.295 30.679V31.7544C197.295 34.4744 197.453 36.4353 197.801 37.8902H197.168V30.2046L197.2 30.2363ZM97.7302 30.2363C97.7302 30.2363 97.7935 30.2363 97.8251 30.2363C97.8251 30.3628 97.8251 30.4893 97.8251 30.679V31.7544C97.8251 34.4744 97.9833 36.4353 98.3312 37.8902H97.6986V30.2046L97.7302 30.2363ZM217.03 37.0995C216.746 35.9925 216.651 34.253 216.651 33.0828V31.2483C216.651 28.0856 215.955 25.587 214.5 23.6893C216.461 21.6967 217.537 19.04 217.537 15.9088C217.537 10.4372 213.52 4.0484 202.134 4.0484H181.544H178.381H113.987V7.36932C111.552 5.37677 107.883 4.0484 102.664 4.0484H78.374V21.0642L72.7443 6.07258L71.9852 4.01677H49.9089L49.1815 6.13584L45.8922 15.7191C44.6587 11.133 40.3257 3.22607 25.3341 3.22607C9.17228 3.28933 3.41602 13.2205 3.41602 22.4874C3.41602 34.253 11.8607 41.8437 24.9546 41.8437C30.6476 41.8437 34.8541 40.7051 37.9536 38.9972L37.2262 41.0846H57.1834L57.7843 38.6809L58.2587 36.72H63.414L63.9517 38.7441L64.5843 41.0846H78.374H80.2717L80.3982 88.4631H216.999V37.0995H217.03ZM43.2671 23.4046H27.3583L26.8206 25.8716C26.4727 27.3897 26.2829 27.3897 25.3974 27.3897C24.3853 27.3897 23.8476 25.7135 23.8476 22.4242C23.8476 20.5265 24.0374 17.3637 25.3974 17.3637C26.2197 17.3637 26.3778 17.3637 26.6309 18.8819L27.042 21.5386H43.9313L43.2987 23.4046H43.2671Z" fill="black"/>
<path id="Vector_27" d="M197.072 30.1097C197.072 30.1097 197.136 30.1097 197.167 30.1097C197.167 30.2362 197.167 30.3627 197.167 30.5525V31.6278C197.167 34.3478 197.325 36.3087 197.673 37.7636H197.041V30.078L197.072 30.1097ZM97.6027 30.1097C97.6027 30.1097 97.666 30.1097 97.6976 30.1097C97.6976 30.2362 97.6976 30.3627 97.6976 30.5525V31.6278C97.6976 34.3478 97.8557 36.3087 98.2036 37.7636H97.5711V30.078L97.6027 30.1097ZM216.903 36.9729C216.618 35.8659 216.523 34.1264 216.523 32.9562V31.1218C216.523 27.959 215.828 25.4604 214.373 23.5627C216.334 21.5701 217.409 18.9134 217.409 15.7823C217.409 10.3106 213.392 3.92181 202.006 3.92181H181.417H178.254H113.859V7.24273C111.424 5.25018 107.755 3.92181 102.537 3.92181H78.2465V20.9376L72.6167 5.94599L71.8576 3.89018H49.7814L49.054 6.00925L45.7647 15.5925C44.5312 11.0064 40.1982 3.09949 25.2066 3.09949C9.0131 3.16274 3.25684 13.0939 3.25684 22.3608C3.25684 34.1264 11.7015 41.7171 24.7954 41.7171C30.4884 41.7171 34.6949 40.5785 37.7944 38.8706L37.067 40.958H57.0242L57.6251 38.5543L58.0995 36.5934H63.2549L63.7925 38.6176L64.4251 40.958H78.2148H80.1125L80.239 88.3365H216.84V36.9729H216.903ZM43.1396 23.2781H27.2307L26.6931 25.745C26.3452 27.2632 26.1554 27.2632 25.2698 27.2632C24.2577 27.2632 23.7201 25.5869 23.7201 22.2976C23.7201 20.3999 23.9098 17.2371 25.2698 17.2371C26.0921 17.2371 26.2503 17.2371 26.5033 18.7553L26.9145 21.412H43.8037L43.1712 23.2781H43.1396Z" fill="black"/>
<path id="Vector_28" d="M196.916 29.983C196.916 29.983 196.979 29.983 197.011 29.983C197.011 30.1095 197.011 30.236 197.011 30.4257V31.5011C197.011 34.2211 197.169 36.182 197.517 37.6369H196.884V29.9513L196.916 29.983ZM97.4461 29.983C97.4461 29.983 97.5093 29.983 97.541 29.983C97.541 30.1095 97.541 30.236 97.541 30.4257V31.5011C97.541 34.2211 97.6991 36.182 98.047 37.6369H97.4144V29.9513L97.4461 29.983ZM216.778 36.8462C216.493 35.7392 216.398 33.9997 216.398 32.8295V30.995C216.398 27.8323 215.703 25.3337 214.248 23.436C216.209 21.4434 217.284 18.7867 217.284 15.6555C217.284 10.1839 213.267 3.7951 201.881 3.7951H181.291H178.129H113.734V7.11603C111.299 5.12347 107.63 3.7951 102.412 3.7951H78.1215V20.8109L72.4917 5.81928L71.7326 3.76347H49.6564L48.929 5.88254L45.6397 15.4658C44.4062 10.8797 40.0732 2.97278 25.0816 2.97278C8.8881 3.03603 3.13184 12.9672 3.13184 22.2341C3.13184 33.9997 11.5765 41.5904 24.6704 41.5904C30.3634 41.5904 34.5699 40.4518 37.6694 38.7439L36.942 40.8313H56.8992L57.5001 38.4276L57.9745 36.4667H63.1299L63.6675 38.4908L64.3001 40.8313H78.0898H79.9875L80.114 88.2098H216.715V36.8462H216.778ZM43.0146 23.1513H27.1057L26.5681 25.6183C26.2202 27.1365 26.0304 27.1365 25.1448 27.1365C24.1327 27.1365 23.5951 25.4602 23.5951 22.1709C23.5951 20.2732 23.7848 17.1104 25.1448 17.1104C25.9671 17.1104 26.1253 17.1104 26.3783 18.6286L26.7895 21.2853H43.6787L43.0462 23.1513H43.0146Z" fill="black"/>
<path id="Vector_29" d="M196.789 29.8567C196.789 29.8567 196.852 29.8567 196.884 29.8567C196.884 29.9832 196.884 30.1098 196.884 30.2995V31.3749C196.884 34.0949 197.042 36.0558 197.39 37.5107H196.757V29.8251L196.789 29.8567ZM97.3191 29.8567C97.3191 29.8567 97.3824 29.8567 97.414 29.8567C97.414 29.9832 97.414 30.1098 97.414 30.2995V31.3749C97.414 34.0949 97.5721 36.0558 97.9201 37.5107H97.2875V29.8251L97.3191 29.8567ZM216.651 36.72C216.366 35.613 216.271 33.8735 216.271 32.7032V30.8688C216.271 27.706 215.576 25.2074 214.121 23.3098C216.082 21.3172 217.157 18.6605 217.157 15.5293C217.157 10.0577 213.14 3.66888 201.754 3.66888H181.165H178.002H113.607V6.98981C111.172 4.99725 107.503 3.66888 102.285 3.66888H77.9945V20.6847L72.3647 5.69306L71.6057 3.63725H49.5294L48.802 5.75632L45.5127 15.3396C44.2792 10.7535 39.9462 2.84656 24.9546 2.84656C8.76115 2.90981 3.00488 12.841 3.00488 22.1079C3.00488 33.8735 11.4495 41.4642 24.5434 41.4642C30.2365 41.4642 34.443 40.3256 37.5425 38.6176L36.8151 40.7051H56.7722L57.3731 38.3014L57.8476 36.3404H63.0029L63.5406 38.3646L64.1731 40.7051H77.9629H79.8605L79.9871 88.0836H216.588V36.72H216.651ZM42.8876 23.0251H26.9788L26.4411 25.4921C26.0932 27.0102 25.9034 27.0102 25.0179 27.0102C24.0058 27.0102 23.4681 25.334 23.4681 22.0447C23.4681 20.147 23.6579 16.9842 25.0179 16.9842C25.8402 16.9842 25.9983 16.9842 26.2514 18.5023L26.6625 21.1591H43.5518L42.9192 23.0251H42.8876Z" fill="black"/>
<path id="Vector_30" d="M196.663 29.7302C196.663 29.7302 196.726 29.7302 196.758 29.7302C196.758 29.8567 196.758 29.9832 196.758 30.1729V31.2483C196.758 33.9683 196.916 35.9292 197.264 37.3841H196.631V29.6985L196.663 29.7302ZM97.1931 29.7302C97.1931 29.7302 97.2564 29.7302 97.288 29.7302C97.288 29.8567 97.288 29.9832 97.288 30.1729V31.2483C97.288 33.9683 97.4462 35.9292 97.7941 37.3841H97.1615V29.6985L97.1931 29.7302ZM216.525 36.5934C216.24 35.4864 216.145 33.7469 216.145 32.5767V30.7422C216.145 27.5795 215.45 25.0809 213.995 23.1832C215.956 21.1906 217.031 18.5339 217.031 15.4027C217.031 9.93112 213.014 3.54229 201.628 3.54229H181.039H177.876H113.481V6.86322C111.046 4.87066 107.377 3.54229 102.159 3.54229H77.8685V20.5581L72.2388 5.56648L71.4797 3.51067H49.4035L48.676 5.62973L45.3867 15.213C44.1532 10.6269 39.8202 2.71997 24.8286 2.71997C8.63517 2.81485 2.87891 12.7144 2.87891 21.9813C2.87891 33.7469 11.3235 41.3376 24.4175 41.3376C30.1105 41.3376 34.317 40.199 37.4165 38.4911L36.6891 40.5785H56.6462L57.2472 38.1748L57.7216 36.2139H62.8769L63.4146 38.238L64.0472 40.5785H77.8369H79.7346L79.8611 87.957H216.462V36.5934H216.525ZM42.73 22.8985H26.8212L26.2835 25.3655C25.9356 26.8836 25.7458 26.8836 24.8603 26.8836C23.8482 26.8836 23.3105 25.2074 23.3105 21.9181C23.3105 20.0204 23.5003 16.8576 24.8603 16.8576C25.6826 16.8576 25.8407 16.8576 26.0937 18.3758L26.5049 21.0325H43.3942L42.7616 22.8985H42.73Z" fill="black"/>
<path id="Vector_31" d="M196.536 29.6036C196.536 29.6036 196.599 29.6036 196.631 29.6036C196.631 29.7301 196.631 29.8566 196.631 30.0463V31.1217C196.631 33.8417 196.789 35.8026 197.137 37.2575H196.504V29.5719L196.536 29.6036ZM97.0662 29.6036C97.0662 29.6036 97.1294 29.6036 97.1611 29.6036C97.1611 29.7301 97.1611 29.8566 97.1611 30.0463V31.1217C97.1611 33.8417 97.3192 35.8026 97.6671 37.2575H97.0346V29.5719L97.0662 29.6036ZM216.366 36.4984C216.082 35.3914 215.987 33.6519 215.987 32.4817V30.6473C215.987 27.4845 215.291 24.9859 213.836 23.0882C215.797 21.0957 216.872 18.4389 216.872 15.3078C216.872 9.83615 212.856 3.44732 201.47 3.44732H180.88H177.717H113.323V6.76825C110.888 4.77569 107.219 3.44732 102 3.44732H77.7099V20.4631L72.0802 5.47151L71.3211 3.4157H49.2449L48.5174 5.53476L45.2281 15.118C43.9947 10.532 39.6616 2.625 24.6701 2.625C8.50822 2.68826 2.75195 12.5878 2.75195 21.8547C2.75195 33.6203 11.1966 41.211 24.2905 41.211C29.9835 41.211 34.19 40.0724 37.2896 38.3645L36.5621 40.4519H56.5193L57.1202 38.0482L57.5946 36.0873H62.75L63.2876 38.1114L63.9202 40.4519H77.7099H79.6076L79.7341 87.8304H216.335V36.4984H216.366ZM42.603 22.7719H26.6942L26.1566 25.2389C25.8087 26.757 25.6189 26.757 24.7333 26.757C23.7212 26.757 23.1835 25.0808 23.1835 21.7915C23.1835 19.8938 23.3733 16.731 24.7333 16.731C25.5556 16.731 25.7138 16.731 25.9668 18.2492L26.378 20.9059H43.2672L42.6347 22.7719H42.603Z" fill="black"/>
<path id="Vector_32" d="M196.409 29.4773C196.409 29.4773 196.472 29.4773 196.504 29.4773C196.504 29.6038 196.504 29.7304 196.504 29.9201V30.9955C196.504 33.7155 196.662 35.6764 197.01 37.1313H196.377V29.4457L196.409 29.4773ZM96.9392 29.4773C96.9392 29.4773 97.0025 29.4773 97.0341 29.4773C97.0341 29.6038 97.0341 29.7304 97.0341 29.9201V30.9955C97.0341 33.7155 97.1923 35.6764 97.5402 37.1313H96.9076V29.4457L96.9392 29.4773ZM216.239 36.3722C215.955 35.2652 215.86 33.5257 215.86 32.3555V30.5211C215.86 27.3583 215.164 24.8597 213.709 22.962C215.67 20.9694 216.745 18.3127 216.745 15.1815C216.745 9.70993 212.729 3.3211 201.343 3.3211H180.753H177.59H113.196V6.64203C110.761 4.64947 107.092 3.3211 101.873 3.3211H77.583V20.3369L71.9532 5.34529L71.1942 3.28948H49.1179L48.3905 5.40854L45.1012 14.9918C43.8677 10.4057 39.5347 2.49878 24.5431 2.49878C8.38127 2.56203 2.625 12.4616 2.625 21.7285C2.625 33.4941 11.0696 41.0848 24.1636 41.0848C29.8566 41.0848 34.0631 39.9461 37.1626 38.2382L36.4352 40.3257H56.3923L56.9933 37.922L57.4677 35.961H62.623L63.1607 37.9852L63.7933 40.3257H77.583H79.4807L79.6072 87.7042H216.208V36.3722H216.239ZM42.4761 22.6457H26.5673L26.0296 25.1127C25.6817 26.6308 25.4919 26.6308 24.6064 26.6308C23.5943 26.6308 23.0566 24.9546 23.0566 21.6653C23.0566 19.7676 23.2464 16.6048 24.6064 16.6048C25.4287 16.6048 25.5868 16.6048 25.8398 18.1229L26.251 20.7797H43.1403L42.5077 22.6457H42.4761Z" fill="black"/>
<path id="Vector_33" d="M196.283 29.3506C196.283 29.3506 196.346 29.3506 196.378 29.3506C196.378 29.4771 196.378 29.6036 196.378 29.7934V30.8688C196.378 33.5888 196.536 35.5497 196.884 37.0046H196.251V29.319L196.283 29.3506ZM96.8133 29.3506C96.8133 29.3506 96.8765 29.3506 96.9081 29.3506C96.9081 29.4771 96.9081 29.6036 96.9081 29.7934V30.8688C96.9081 33.5888 97.0663 35.5497 97.4142 37.0046H96.7816V29.319L96.8133 29.3506ZM216.113 36.2455C215.829 35.1385 215.734 33.399 215.734 32.2288V30.3943C215.734 27.2316 215.038 24.733 213.583 22.8353C215.544 20.8427 216.62 18.186 216.62 15.0548C216.62 9.58322 212.603 3.19439 201.217 3.19439H180.627H177.464H113.07V6.51532C110.635 4.52276 106.966 3.19439 101.747 3.19439H77.457V20.2102L71.8273 5.21858L71.0682 3.16277H48.992L48.2645 5.28183L44.9752 14.8651C43.7417 10.279 39.4087 2.37207 24.4171 2.37207C8.25529 2.43533 2.49902 12.3348 2.49902 21.6018C2.49902 33.3674 10.9437 40.958 24.0376 40.958C29.7306 40.958 33.9371 39.8194 37.0366 38.1115L36.3092 40.199H56.2664L56.8673 37.7953L57.3417 35.8343H62.497L63.0347 37.8585L63.6673 40.199H77.457H79.3547L79.4812 87.5775H216.082V36.2455H216.113ZM42.3501 22.5506H26.4413L25.9036 25.0176C25.5557 26.5357 25.366 26.5357 24.4804 26.5357C23.4683 26.5357 22.9306 24.8595 22.9306 21.5702C22.9306 19.6725 23.1204 16.5097 24.4804 16.5097C25.3027 16.5097 25.4608 16.5097 25.7139 18.0279L26.125 20.6846H43.0143L42.3817 22.5506H42.3501Z" fill="black"/>
<path id="Vector_34" d="M196.156 29.224C196.156 29.224 196.22 29.224 196.251 29.224C196.251 29.3506 196.251 29.4771 196.251 29.6668V30.7422C196.251 33.4622 196.409 35.4231 196.757 36.878H196.125V29.1924L196.156 29.224ZM96.6867 29.224C96.6867 29.224 96.7499 29.224 96.7816 29.224C96.7816 29.3506 96.7816 29.4771 96.7816 29.6668V30.7422C96.7816 33.4622 96.9397 35.4231 97.2876 36.878H96.6551V29.1924L96.6867 29.224ZM215.987 36.1189C215.702 35.0119 215.607 33.2724 215.607 32.1022V30.2678C215.607 27.105 214.912 24.6064 213.457 22.7087C215.418 20.7161 216.493 18.0594 216.493 14.9282C216.493 9.45663 212.476 3.06781 201.09 3.06781H180.5H177.338H112.943V6.38873C110.508 4.39618 106.839 3.06781 101.621 3.06781H77.3304V20.0836L71.7007 5.09199L70.9416 3.03618H48.8654L48.1379 5.15525L44.8486 14.7385C43.6152 10.1524 39.2821 2.24548 24.2905 2.24548C8.12871 2.30874 2.34082 12.2083 2.34082 21.4752C2.34082 33.2408 10.7855 40.8315 23.8794 40.8315C29.5724 40.8315 33.7789 39.6929 36.8784 37.985L36.151 40.0724H56.1082L56.7091 37.6687L57.1835 35.7077H62.3388L62.8765 37.7319L63.5091 40.0724H77.2988H79.1965L79.323 87.4509H215.924V36.1189H215.987ZM42.2235 22.4241H26.3147L25.7771 24.891C25.4291 26.4092 25.2394 26.4092 24.3538 26.4092C23.3417 26.4092 22.804 24.7329 22.804 21.4436C22.804 19.5459 22.9938 16.3831 24.3538 16.3831C25.1761 16.3831 25.3343 16.3831 25.5873 17.9013L25.9985 20.558H42.8877L42.2552 22.4241H42.2235Z" fill="black"/>
<path id="Vector_35" d="M196.03 29.0978C196.03 29.0978 196.094 29.0978 196.125 29.0978C196.125 29.2243 196.125 29.3508 196.125 29.5406V30.616C196.125 33.3359 196.283 35.2969 196.631 36.7518H195.999V29.0662L196.03 29.0978ZM96.5291 29.0978C96.5291 29.0978 96.5923 29.0978 96.624 29.0978C96.624 29.2243 96.624 29.3508 96.624 29.5406V30.616C96.624 33.3359 96.7821 35.2969 97.13 36.7518H96.4975V29.0662L96.5291 29.0978ZM215.861 35.9927C215.576 34.8857 215.481 33.1462 215.481 31.976V30.1415C215.481 26.9788 214.786 24.4802 213.331 22.5825C215.292 20.5899 216.367 17.9332 216.367 14.802C216.367 9.33041 212.35 2.94159 200.964 2.94159H180.375H177.212H112.817V6.26251C110.382 4.26996 106.713 2.94159 101.495 2.94159H77.2045V19.9574L71.5747 4.96577L70.8156 2.90996H48.7394L48.012 5.02903L44.7227 14.6123C43.4892 10.0262 39.1562 2.11926 24.1646 2.11926C7.97111 2.18252 2.21484 12.082 2.21484 21.349C2.21484 33.1146 10.6595 40.7052 23.7534 40.7052C29.4464 40.7052 33.6529 39.5666 36.7525 37.8587L36.025 39.9462H55.9822L56.5831 37.5425L57.0575 35.5815H62.2129L62.7505 37.6057L63.3831 39.9462H77.1728H79.0705L79.197 87.3247H215.798V35.9927H215.861ZM42.0976 22.2978H26.1888L25.6511 24.7648C25.3032 26.2829 25.1134 26.2829 24.2278 26.2829C23.2157 26.2829 22.6781 24.6067 22.6781 21.3174C22.6781 19.4197 22.8678 16.2569 24.2278 16.2569C25.0501 16.2569 25.2083 16.2569 25.4613 17.775L25.8725 20.4318H42.7617L42.1292 22.2978H42.0976Z" fill="black"/>
<path id="Vector_36" d="M195.872 28.9711C195.872 28.9711 195.935 28.9711 195.967 28.9711C195.967 29.0976 195.967 29.2241 195.967 29.4139V30.4892C195.967 33.2092 196.125 35.1702 196.473 36.625H195.84V28.9395L195.872 28.9711ZM96.4021 28.9711C96.4021 28.9711 96.4654 28.9711 96.497 28.9711C96.497 29.0976 96.497 29.2241 96.497 29.4139V30.4892C96.497 33.2092 96.6552 35.1702 97.0031 36.625H96.3705V28.9395L96.4021 28.9711ZM215.734 35.866C215.449 34.759 215.354 33.0195 215.354 31.8492V30.0148C215.354 26.852 214.659 24.3534 213.204 22.4558C215.165 20.4632 216.24 17.8065 216.24 14.6753C216.24 9.2037 212.223 2.81488 200.837 2.81488H180.248H177.085H112.69V6.1358C110.255 4.14325 106.586 2.81488 101.368 2.81488H77.0775V19.8307L71.4478 4.83906L70.6887 2.78325H48.6125L47.885 4.90232L44.5957 14.4856C43.3622 9.89952 39.0292 1.99255 24.0376 1.99255C7.84416 2.05581 2.08789 11.9553 2.08789 21.2223C2.08789 32.9878 10.5325 40.5785 23.6265 40.5785C29.3195 40.5785 33.526 39.4399 36.6255 37.732L35.8981 39.8195H55.8552L56.4562 37.4157L56.9306 35.4548H62.0859L62.6236 37.479L63.2561 39.8195H77.0459H78.9436L79.0701 87.198H215.671V35.866H215.734ZM41.9706 22.1711H26.0618L25.5241 24.6381C25.1762 26.1562 24.9865 26.1562 24.1009 26.1562C23.0888 26.1562 22.5511 24.48 22.5511 21.1907C22.5511 19.293 22.7409 16.1302 24.1009 16.1302C24.9232 16.1302 25.0813 16.1302 25.3344 17.6483L25.7455 20.3051H42.6348L42.0022 22.1711H41.9706Z" fill="black"/>
<path id="Vector_37" d="M195.745 28.8445C195.745 28.8445 195.808 28.8445 195.84 28.8445C195.84 28.971 195.84 29.0975 195.84 29.2873V30.3627C195.84 33.0827 195.998 35.0436 196.346 36.4985H195.713V28.8129L195.745 28.8445ZM96.2752 28.8445C96.2752 28.8445 96.3384 28.8445 96.37 28.8445C96.37 28.971 96.37 29.0975 96.37 29.2873V30.3627C96.37 33.0827 96.5282 35.0436 96.8761 36.4985H96.2435V28.8129L96.2752 28.8445ZM215.607 35.7394C215.322 34.6324 215.228 32.8929 215.228 31.7227V29.8882C215.228 26.7255 214.532 24.2269 213.077 22.3292C215.038 20.3366 216.113 17.6799 216.113 14.5487C216.113 9.07711 212.096 2.68829 200.71 2.68829H180.121H176.958H112.564V6.00921C110.128 4.01666 106.459 2.68829 101.241 2.68829H76.9506V19.7041L71.3208 4.71247L70.5617 2.65666H48.4855L47.7581 4.77573L44.4688 14.359C43.2353 9.77293 38.9023 1.86597 23.9107 1.86597C7.71721 1.92922 1.96094 11.8287 1.96094 21.1273C1.96094 32.8929 10.4056 40.4836 23.4995 40.4836C29.1925 40.4836 33.399 39.345 36.4985 37.6371L35.7711 39.7245H55.7283L56.3292 37.3208L56.8036 35.3599H61.959L62.4966 37.384L63.1292 39.7245H76.9189H78.8166L78.9431 87.103H215.544V35.7394H215.607ZM41.8437 22.0445H25.9348L25.3972 24.5115C25.0493 26.0296 24.8595 26.0296 23.9739 26.0296C22.9618 26.0296 22.4242 24.3534 22.4242 21.0641C22.4242 19.1664 22.6139 16.0036 23.9739 16.0036C24.7962 16.0036 24.9544 16.0036 25.2074 17.5217L25.6186 20.1785H42.5078L41.8753 22.0445H41.8437Z" fill="black"/>
<path id="Vector_38" d="M195.619 28.7182C195.619 28.7182 195.682 28.7182 195.714 28.7182C195.714 28.8447 195.714 28.9712 195.714 29.161V30.2363C195.714 32.9563 195.872 34.9172 196.22 36.3721H195.587V28.6866L195.619 28.7182ZM96.1492 28.7182C96.1492 28.7182 96.2125 28.7182 96.2441 28.7182C96.2441 28.8447 96.2441 28.9712 96.2441 29.161V30.2363C96.2441 32.9563 96.4022 34.9172 96.7501 36.3721H96.1176V28.6866L96.1492 28.7182ZM215.449 35.613C215.165 34.5061 215.07 32.7665 215.07 31.5963V29.7619C215.07 26.5991 214.374 24.1005 212.919 22.2028C214.88 20.2103 215.955 17.5535 215.955 14.4224C215.955 8.95077 211.939 2.56195 200.553 2.56195H179.963H176.8H112.406V5.88287C109.971 3.89032 106.302 2.56195 101.083 2.56195H76.793V19.5777L71.1632 4.58613L70.4041 2.53032H48.3279L47.6005 4.64939L44.3112 14.2326C43.0777 9.64659 38.7447 1.73962 23.7531 1.73962C7.59123 1.80288 1.83496 11.7024 1.83496 21.001C1.83496 32.7665 10.2796 40.3572 23.3735 40.3572C29.0665 40.3572 33.273 39.2186 36.3726 37.5107L35.6451 39.5982H55.6023L56.2032 37.1944L56.6776 35.2335H61.833L62.3707 37.2577L63.0032 39.5982H76.793H78.6906L78.8171 86.9767H215.418V35.613H215.449ZM41.686 21.9182H25.7772L25.2396 24.3852C24.8917 25.9033 24.7019 25.9033 23.8163 25.9033C22.8042 25.9033 22.2666 24.227 22.2666 20.9377C22.2666 19.0401 22.4563 15.8773 23.8163 15.8773C24.6386 15.8773 24.7968 15.8773 25.0498 17.3954L25.461 20.0521H42.3502L41.7177 21.9182H41.686Z" fill="black"/>
<path id="Vector_39" d="M195.492 28.5916C195.492 28.5916 195.555 28.5916 195.587 28.5916C195.587 28.7181 195.587 28.8446 195.587 29.0344V30.1097C195.587 32.8297 195.745 34.7906 196.093 36.2455H195.46V28.56L195.492 28.5916ZM96.0222 28.5916C96.0222 28.5916 96.0855 28.5916 96.1171 28.5916C96.1171 28.7181 96.1171 28.8446 96.1171 29.0344V30.1097C96.1171 32.8297 96.2753 34.7906 96.6232 36.2455H95.9906V28.56L96.0222 28.5916ZM215.322 35.4865C215.038 34.3795 214.943 32.64 214.943 31.4697V29.6353C214.943 26.4725 214.247 23.9739 212.792 22.0763C214.753 20.0837 215.829 17.427 215.829 14.2958C215.829 8.82419 211.812 2.43536 200.426 2.43536H179.836H176.673H112.279V5.75628C109.844 3.76373 106.175 2.43536 100.956 2.43536H76.666V19.4511L71.0362 4.45954L70.2772 2.40373H48.2009L47.4735 4.5228L44.1842 14.106C42.9507 9.52 38.6177 1.61304 23.6261 1.61304C7.46427 1.67629 1.70801 11.5758 1.70801 20.8744C1.70801 32.64 10.1526 40.2306 23.2466 40.2306C28.9396 40.2306 33.1461 39.092 36.2456 37.3841L35.5182 39.4716H55.4753L56.0763 37.0679L56.5507 35.1069H61.706L62.2437 37.1311L62.8763 39.4716H76.666H78.5637L78.6902 86.8501H215.291V35.4865H215.322ZM41.5591 21.7916H25.6503L25.1126 24.2586C24.7647 25.7767 24.5749 25.7767 23.6894 25.7767C22.6773 25.7767 22.1396 24.1004 22.1396 20.8111C22.1396 18.9135 22.3294 15.7507 23.6894 15.7507C24.5117 15.7507 24.6698 15.7507 24.9228 17.2688L25.334 19.9256H42.2233L41.5907 21.7916H41.5591Z" fill="black"/>
<path id="Vector_40" d="M195.365 28.465C195.365 28.465 195.428 28.465 195.46 28.465C195.46 28.5915 195.46 28.718 195.46 28.9078V29.9831C195.46 32.7031 195.618 34.6641 195.966 36.1189H195.333V28.4334L195.365 28.465ZM95.8953 28.465C95.8953 28.465 95.9585 28.465 95.9902 28.465C95.9902 28.5915 95.9902 28.718 95.9902 28.9078V29.9831C95.9902 32.7031 96.1483 34.6641 96.4962 36.1189H95.8637V28.4334L95.8953 28.465ZM215.196 35.3599C214.911 34.2529 214.816 32.5134 214.816 31.3431V29.5087C214.816 26.3459 214.12 23.8473 212.665 21.9497C214.626 19.9571 215.702 17.3004 215.702 14.1692C215.702 8.6976 211.685 2.30877 200.299 2.30877H179.709H176.546H112.152V5.6297C109.717 3.63714 106.048 2.30877 100.829 2.30877H76.5391V19.3246L70.9093 4.33296L70.1502 2.27715H48.074L47.3465 4.39621L44.0573 13.9795C42.8238 9.39341 38.4907 1.48645 23.4992 1.48645C7.33732 1.54971 1.58105 11.4809 1.58105 20.7478C1.58105 32.5134 10.0257 40.1041 23.1196 40.1041C28.8126 40.1041 33.0191 38.9655 36.1187 37.2575L35.3912 39.345H55.3484L55.9493 36.9413L56.4237 34.9803H61.5791L62.1167 37.0045L62.7493 39.345H76.5391H78.4367L78.5632 86.7235H215.164V35.3599H215.196ZM41.4321 21.665H25.5233L24.9857 24.132C24.6378 25.6501 24.448 25.6501 23.5624 25.6501C22.5503 25.6501 22.0126 23.9739 22.0126 20.6846C22.0126 18.7869 22.2024 15.6241 23.5624 15.6241C24.3847 15.6241 24.5429 15.6241 24.7959 17.1422L25.2071 19.799H42.0963L41.4638 21.665H41.4321Z" fill="black"/>
<path id="Vector_41" d="M195.239 28.3703C195.239 28.3703 195.303 28.3703 195.334 28.3703C195.334 28.4968 195.334 28.6233 195.334 28.8131V29.8884C195.334 32.6084 195.492 34.5693 195.84 36.0242H195.208V28.3387L195.239 28.3703ZM95.7697 28.3703C95.7697 28.3703 95.833 28.3703 95.8646 28.3703C95.8646 28.4968 95.8646 28.6233 95.8646 28.8131V29.8884C95.8646 32.6084 96.0227 34.5693 96.3706 36.0242H95.7381V28.3387L95.7697 28.3703ZM215.07 35.2335C214.785 34.1266 214.69 32.387 214.69 31.2168V29.3824C214.69 26.2196 213.995 23.721 212.54 21.8233C214.501 19.8308 215.576 17.174 215.576 14.0429C215.576 8.57126 211.559 2.18243 200.173 2.18243H179.583H176.421H112.026V5.50336C109.591 3.5108 105.922 2.18243 100.704 2.18243H76.4135V19.1982L70.7837 4.20661L70.0246 2.1508H47.9484L47.221 4.26987L43.9317 13.8531C42.6982 9.26707 38.3652 1.36011 23.3736 1.36011C7.21172 1.42336 1.42383 11.3545 1.42383 20.6215C1.42383 32.387 9.86847 39.9777 22.9624 39.9777C28.6554 39.9777 32.8619 38.8391 35.9614 37.1312L35.234 39.2186H55.1912L55.7921 36.8149L56.2665 34.854H61.4219L61.9595 36.8782L62.5921 39.2186H76.3818H78.2795L78.406 86.5972H215.007V35.2335H215.07ZM41.3065 21.5387H25.3977L24.8601 24.0056C24.5122 25.5238 24.3224 25.5238 23.4368 25.5238C22.4247 25.5238 21.887 23.8475 21.887 20.5582C21.887 18.6605 22.0768 15.4978 23.4368 15.4978C24.2591 15.4978 24.4173 15.4978 24.6703 17.0159L25.0815 19.6726H41.9707L41.3382 21.5387H41.3065Z" fill="black"/>
<path id="Vector_42" d="M195.112 28.2437C195.112 28.2437 195.176 28.2437 195.207 28.2437C195.207 28.3702 195.207 28.4967 195.207 28.6865V29.7618C195.207 32.4818 195.365 34.4428 195.713 35.8976H195.081V28.2121L195.112 28.2437ZM95.6111 28.2437C95.6111 28.2437 95.6744 28.2437 95.706 28.2437C95.706 28.3702 95.706 28.4967 95.706 28.6865V29.7618C95.706 32.4818 95.8641 34.4428 96.212 35.8976H95.5795V28.2121L95.6111 28.2437ZM214.943 35.1069C214.658 34 214.563 32.2604 214.563 31.0902V29.2558C214.563 26.093 213.868 23.5944 212.413 21.6967C214.374 19.7042 215.449 17.0474 215.449 13.9163C215.449 8.44467 211.432 2.05584 200.046 2.05584H179.457H176.294H111.899V5.37677C109.464 3.38421 105.795 2.05584 100.577 2.05584H76.2865V19.0716L70.6567 4.08003L69.8977 2.02422H47.8214L47.094 4.14328L43.8047 13.7265C42.5712 9.14048 38.2382 1.23352 23.2466 1.23352C7.05314 1.29678 1.29688 11.2279 1.29688 20.4949C1.29688 32.2604 9.74151 39.8511 22.8354 39.8511C28.5285 39.8511 32.735 38.7125 35.8345 37.0046L35.107 39.0921H55.0642L55.6651 36.6883L56.1396 34.7274H61.2949L61.8326 36.7516L62.4651 39.0921H76.2549H78.1525L78.2791 86.4706H214.88V35.1069H214.943ZM41.1796 21.4121H25.2708L24.7331 23.8791C24.3852 25.3972 24.1954 25.3972 23.3099 25.3972C22.2978 25.3972 21.7601 23.7209 21.7601 20.4316C21.7601 18.534 21.9499 15.3712 23.3099 15.3712C24.1322 15.3712 24.2903 15.3712 24.5433 16.8893L24.9545 19.546H41.8438L41.2112 21.4121H41.1796Z" fill="black"/>
<path id="Vector_43" d="M194.955 28.1171C194.955 28.1171 195.018 28.1171 195.05 28.1171C195.05 28.2436 195.05 28.3701 195.05 28.5599V29.6353C195.05 32.3552 195.208 34.3162 195.556 35.7711H194.923V28.0855L194.955 28.1171ZM95.4851 28.1171C95.4851 28.1171 95.5484 28.1171 95.58 28.1171C95.58 28.2436 95.58 28.3701 95.58 28.5599V29.6353C95.58 32.3552 95.7382 34.3162 96.0861 35.7711H95.4535V28.0855L95.4851 28.1171ZM214.817 34.9804C214.532 33.8734 214.437 32.1339 214.437 30.9636V29.1292C214.437 25.9664 213.742 23.4678 212.287 21.5702C214.248 19.5776 215.323 16.9209 215.323 13.7897C215.323 8.31808 211.306 1.92926 199.92 1.92926H179.331H176.168H111.773V5.25018C109.338 3.25763 105.669 1.92926 100.451 1.92926H76.1605V18.945L70.5308 3.95344L69.7717 1.89763H47.6955L46.968 4.0167L43.6787 13.5999C42.4452 9.0139 38.1122 1.10693 23.1206 1.10693C6.92717 1.17019 1.1709 11.1013 1.1709 20.3683C1.1709 32.1339 9.61553 39.7245 22.7095 39.7245C28.4025 39.7245 32.609 38.5859 35.7085 36.878L34.9811 38.9655H54.9382L55.5392 36.5617L56.0136 34.6008H61.1689L61.7066 36.625L62.3391 38.9655H76.1289H78.0266L78.1531 86.344H214.754V34.9804H214.817ZM41.0536 21.2855H25.1448L24.6071 23.7525C24.2592 25.2706 24.0695 25.2706 23.1839 25.2706C22.1718 25.2706 21.6341 23.5943 21.6341 20.305C21.6341 18.4074 21.8239 15.2446 23.1839 15.2446C24.0062 15.2446 24.1643 15.2446 24.4174 16.7627L24.8285 19.4195H41.7178L41.0852 21.2855H41.0536Z" fill="black"/>
<path id="Vector_44" d="M194.828 27.9908C194.828 27.9908 194.891 27.9908 194.923 27.9908C194.923 28.1173 194.923 28.2438 194.923 28.4336V29.5089C194.923 32.2289 195.081 34.1898 195.429 35.6447H194.796V27.9591L194.828 27.9908ZM95.3582 27.9908C95.3582 27.9908 95.4214 27.9908 95.4531 27.9908C95.4531 28.1173 95.4531 28.2438 95.4531 28.4336V29.5089C95.4531 32.2289 95.6112 34.1898 95.9591 35.6447H95.3266V27.9591L95.3582 27.9908ZM214.69 34.854C214.405 33.747 214.311 32.0075 214.311 30.8373V29.0029C214.311 25.8401 213.615 23.3415 212.16 21.4438C214.121 19.4513 215.196 16.7945 215.196 13.6634C215.196 8.19174 211.179 1.80291 199.793 1.80291H179.204H176.041H111.647V5.12384C109.211 3.13128 105.542 1.80291 100.324 1.80291H76.0336V18.8187L70.4038 3.8271L69.6447 1.77129H47.5685L46.8411 3.89035L43.5518 13.4736C42.3183 8.88755 37.9853 0.980591 22.9937 0.980591C6.80021 1.04385 1.04395 10.975 1.04395 20.242C1.04395 32.0075 9.48858 39.5982 22.5825 39.5982C28.2755 39.5982 32.482 38.4596 35.5816 36.7517L34.8541 38.8391H54.8113L55.4122 36.4354L55.8866 34.4745H61.042L61.5796 36.4987L62.2122 38.8391H76.0019H77.8996L78.0261 86.2176H214.627V34.854H214.69ZM40.9267 21.1592H25.0179L24.4802 23.6261C24.1323 25.1443 23.9425 25.1443 23.0569 25.1443C22.0448 25.1443 21.5072 23.468 21.5072 20.1787C21.5072 18.281 21.6969 15.1182 23.0569 15.1182C23.8792 15.1182 24.0374 15.1182 24.2904 16.6364L24.7016 19.2931H41.5908L40.9583 21.1592H40.9267Z" fill="black"/>
<path id="Vector_45" d="M194.701 27.8642C194.701 27.8642 194.764 27.8642 194.796 27.8642C194.796 27.9907 194.796 28.1172 194.796 28.307V29.3823C194.796 32.1023 194.954 34.0632 195.302 35.5181H194.669V27.8326L194.701 27.8642ZM95.2312 27.8642C95.2312 27.8642 95.2945 27.8642 95.3261 27.8642C95.3261 27.9907 95.3261 28.1172 95.3261 28.307V29.3823C95.3261 32.1023 95.4842 34.0632 95.8322 35.5181H95.1996V27.8326L95.2312 27.8642ZM214.531 34.7274C214.247 33.6205 214.152 31.8809 214.152 30.7107V28.8763C214.152 25.7135 213.456 23.2149 212.001 21.3172C213.962 19.3247 215.037 16.6679 215.037 13.5368C215.037 8.06515 211.021 1.67633 199.635 1.67633H179.045H175.882H111.488V4.99725C109.053 3.0047 105.384 1.67633 100.165 1.67633H75.875V18.6921L70.2452 3.70051L69.4862 1.6447H47.4099L46.6825 3.76377L43.3932 13.347C42.1597 8.76096 37.8267 0.854004 22.8351 0.854004C6.67326 0.948887 0.916992 10.8484 0.916992 20.1154C0.916992 31.8809 9.36163 39.4716 22.4556 39.4716C28.1486 39.4716 32.3551 38.333 35.4546 36.6251L34.7272 38.7125H54.6843L55.2853 36.3088L55.7597 34.3479H60.915L61.4527 36.3721L62.0852 38.7125H75.875H77.7727L77.8992 86.091H214.5V34.7274H214.531ZM40.7681 21.0326H24.8593L24.3216 23.4995C23.9737 25.0177 23.7839 25.0177 22.8983 25.0177C21.8863 25.0177 21.3486 23.3414 21.3486 20.0521C21.3486 18.1544 21.5383 14.9917 22.8983 14.9917C23.7207 14.9917 23.8788 14.9917 24.1318 16.5098L24.543 19.1665H41.4323L40.7997 21.0326H40.7681Z" fill="black"/>
<path id="Vector_46" d="M194.575 27.7376C194.575 27.7376 194.638 27.7376 194.67 27.7376C194.67 27.8641 194.67 27.9906 194.67 28.1804V29.2557C194.67 31.9757 194.828 33.9366 195.176 35.3915H194.543V27.706L194.575 27.7376ZM95.1052 27.7376C95.1052 27.7376 95.1685 27.7376 95.2001 27.7376C95.2001 27.8641 95.2001 27.9906 95.2001 28.1804V29.2557C95.2001 31.9757 95.3583 33.9366 95.7062 35.3915H95.0736V27.706L95.1052 27.7376ZM214.405 34.6325C214.121 33.5255 214.026 31.786 214.026 30.6157V28.7813C214.026 25.6185 213.33 23.1199 211.875 21.2223C213.836 19.2297 214.912 16.573 214.912 13.4418C214.912 7.97018 210.895 1.58136 199.509 1.58136H178.919H175.756H111.362V4.90228C108.927 2.90973 105.258 1.58136 100.039 1.58136H75.749V18.5971L70.1193 3.60554L69.3602 1.54973H47.2839L46.5565 3.6688L43.2672 13.252C42.0337 8.666 37.7007 0.759033 22.7091 0.759033C6.54728 0.822289 0.791016 10.7218 0.791016 19.9888C0.791016 31.7543 9.23565 39.345 22.3296 39.345C28.0226 39.345 32.2291 38.2064 35.3286 36.4985L34.6012 38.5859H54.5584L55.1593 36.1822L55.6337 34.2213H60.789L61.3267 36.2455L61.9593 38.5859H75.749H77.6467L77.7732 85.9645H214.374V34.6325H214.405ZM40.6421 20.906H24.7333L24.1956 23.3729C23.8477 24.8911 23.6579 24.8911 22.7724 24.8911C21.7603 24.8911 21.2226 23.2148 21.2226 19.9255C21.2226 18.0278 21.4124 14.8651 22.7724 14.8651C23.5947 14.8651 23.7528 14.8651 24.0059 16.3832L24.417 19.0399H41.3063L40.6737 20.906H40.6421Z" fill="black"/>
<path id="Vector_47" d="M194.448 27.611C194.448 27.611 194.511 27.611 194.543 27.611C194.543 27.7375 194.543 27.864 194.543 28.0538V29.1291C194.543 31.8491 194.701 33.8101 195.049 35.2649H194.416V27.5794L194.448 27.611ZM94.9783 27.611C94.9783 27.611 95.0416 27.611 95.0732 27.611C95.0732 27.7375 95.0732 27.864 95.0732 28.0538V29.1291C95.0732 31.8491 95.2313 33.8101 95.5792 35.2649H94.9467V27.5794L94.9783 27.611ZM214.279 34.5059C213.994 33.3989 213.899 31.6594 213.899 30.4891V28.6547C213.899 25.4919 213.203 22.9933 211.748 21.0957C213.709 19.1031 214.785 16.4464 214.785 13.3152C214.785 7.8436 210.768 1.45477 199.382 1.45477H178.792H175.629H111.235V4.77569C108.8 2.78314 105.131 1.45477 99.9122 1.45477H75.6221V18.4706L69.9923 3.47895L69.2332 1.42314H47.157L46.4296 3.54221L43.1403 13.1254C41.9068 8.53941 37.5738 0.632446 22.5822 0.632446C6.42033 0.695702 0.664062 10.5952 0.664062 19.8622C0.664062 31.6277 9.1087 39.2184 22.2026 39.2184C27.8956 39.2184 32.1021 38.0798 35.2017 36.3719L34.4742 38.4594H54.4314L55.0323 36.0556L55.5067 34.0947H60.6621L61.1998 36.1189L61.8323 38.4594H75.6221H77.5197L77.6462 85.8379H214.247V34.5059H214.279ZM40.5151 20.7794H24.6063L24.0687 23.2464C23.7208 24.7645 23.531 24.7645 22.6454 24.7645C21.6333 24.7645 21.0957 23.0882 21.0957 19.7989C21.0957 17.9013 21.2854 14.7385 22.6454 14.7385C23.4677 14.7385 23.6259 14.7385 23.8789 16.2566L24.2901 18.9133H41.1793L40.5468 20.7794H40.5151Z" fill="black"/>
<path id="Vector_48" d="M194.321 27.4847C194.321 27.4847 194.384 27.4847 194.416 27.4847C194.416 27.6112 194.416 27.7377 194.416 27.9274V29.0028C194.416 31.7228 194.574 33.6837 194.922 35.1386H194.289V27.453L194.321 27.4847ZM94.8513 27.4847C94.8513 27.4847 94.9146 27.4847 94.9462 27.4847C94.9462 27.6112 94.9462 27.7377 94.9462 27.9274V29.0028C94.9462 31.7228 95.1044 33.6837 95.4523 35.1386H94.8197V27.453L94.8513 27.4847ZM214.152 34.3795C213.867 33.2726 213.772 31.533 213.772 30.3628V28.5284C213.772 25.3656 213.076 22.867 211.621 20.9693C213.582 18.9768 214.658 16.32 214.658 13.1889C214.658 7.71725 210.641 1.32843 199.255 1.32843H178.665H175.502H111.108V4.64935C108.673 2.6568 105.004 1.32843 99.7853 1.32843H75.4951V18.3442L69.8653 3.35261L69.1063 1.2968H47.03L46.3026 3.41587L43.0133 12.9991C41.7798 8.41307 37.4468 0.506104 22.4552 0.506104C6.29338 0.569359 0.537109 10.4689 0.537109 19.7358C0.537109 31.5014 8.98174 39.0921 22.0757 39.0921C27.7687 39.0921 31.9752 37.9535 35.0747 36.2456L34.3473 38.333H54.3044L54.9054 35.9293L55.3798 33.9684H60.5351L61.0728 35.9925L61.7054 38.333H75.4951H77.3928L77.5193 85.7115H214.12V34.3795H214.152ZM40.3882 20.6847H24.4794L23.9417 23.1516C23.5938 24.6698 23.404 24.6698 22.5185 24.6698C21.5064 24.6698 20.9687 22.9935 20.9687 19.7042C20.9687 17.8065 21.1585 14.6438 22.5185 14.6438C23.3408 14.6438 23.4989 14.6438 23.7519 16.1619L24.1631 18.8186H41.0524L40.4198 20.6847H40.3882Z" fill="black"/>
<path id="Vector_49" d="M194.195 27.3582C194.195 27.3582 194.259 27.3582 194.29 27.3582C194.29 27.4847 194.29 27.6112 194.29 27.801V28.8763C194.29 31.5963 194.448 33.5572 194.796 35.0121H194.164V27.3265L194.195 27.3582ZM94.7257 27.3582C94.7257 27.3582 94.789 27.3582 94.8206 27.3582C94.8206 27.4847 94.8206 27.6112 94.8206 27.801V28.8763C94.8206 31.5963 94.9788 33.5572 95.3267 35.0121H94.6941V27.3265L94.7257 27.3582ZM214.026 34.253C213.741 33.1461 213.646 31.4065 213.646 30.2363V28.4019C213.646 25.2391 212.951 22.7405 211.496 20.8428C213.457 18.8503 214.532 16.1935 214.532 13.0624C214.532 7.59077 210.515 1.20194 199.129 1.20194H178.54H175.377H110.982V4.52286C108.547 2.53031 104.878 1.20194 99.6597 1.20194H75.3695V18.2177L69.7397 3.22612L68.9807 1.17031H46.9044L46.177 3.28938L42.8877 12.8726C41.6226 8.34983 37.2896 0.442871 22.3296 0.442871C6.16778 0.442871 0.379883 10.3424 0.379883 19.6093C0.379883 31.3749 8.82452 38.9656 21.9184 38.9656C27.6115 38.9656 31.818 37.827 34.9175 36.1191L34.1901 38.2065H54.1472L54.7481 35.8028L55.2226 33.8419H60.3779L60.9156 35.8661L61.5481 38.2065H75.3379H77.2355L77.3621 85.585H213.963V34.253H214.026ZM40.2626 20.5582H24.3538L23.8161 23.0252C23.4682 24.5433 23.2784 24.5433 22.3929 24.5433C21.3808 24.5433 20.8431 22.867 20.8431 19.5777C20.8431 17.68 21.0329 14.5173 22.3929 14.5173C23.2152 14.5173 23.3733 14.5173 23.6263 16.0354L24.0375 18.6921H40.9268L40.2942 20.5582H40.2626Z" fill="black"/>
<path id="Vector_50" d="M194.037 27.2315C194.037 27.2315 194.1 27.2315 194.132 27.2315C194.132 27.358 194.132 27.4845 194.132 27.6742V28.7496C194.132 31.4696 194.29 33.4305 194.638 34.8854H194.005V27.1998L194.037 27.2315ZM94.5672 27.2315C94.5672 27.2315 94.6304 27.2315 94.662 27.2315C94.662 27.358 94.662 27.4845 94.662 27.6742V28.7496C94.662 31.4696 94.8202 33.4305 95.1681 34.8854H94.5355V27.1998L94.5672 27.2315ZM213.899 34.1263C213.614 33.0194 213.52 31.2798 213.52 30.1096V28.2752C213.52 25.1124 212.824 22.6138 211.369 20.7161C213.33 18.7236 214.405 16.0668 214.405 12.9357C214.405 7.46406 210.388 1.07523 199.002 1.07523H178.413H175.25H110.855V4.39615C108.42 2.4036 104.751 1.07523 99.5327 1.07523H75.2426V18.091L69.6128 3.09941L68.8537 1.0436H46.7775L46.0501 3.16267L42.7608 12.7459C41.4956 8.22313 37.1626 0.316162 22.171 0.316162C6.0092 0.316162 0.25293 10.2157 0.25293 19.4826C0.25293 31.2482 8.69757 38.8389 21.7915 38.8389C27.4845 38.8389 31.691 37.7003 34.7905 35.9924L34.0631 38.0798H54.0203L54.6212 35.6761L55.0956 33.7152H60.2509L60.7886 35.7394L61.4212 38.0798H75.2109H77.1086L77.2351 85.4583H213.836V34.1263H213.899ZM40.1356 20.4315H24.2268L23.6892 22.8984C23.3413 24.4166 23.1515 24.4166 22.2659 24.4166C21.2538 24.4166 20.7161 22.7403 20.7161 19.451C20.7161 17.5533 20.9059 14.3906 22.2659 14.3906C23.0882 14.3906 23.2464 14.3906 23.4994 15.9087L23.9106 18.5654H40.7998L40.1673 20.4315H40.1356Z" fill="black"/>
<path id="Vector_51" d="M193.911 27.1052C193.911 27.1052 193.974 27.1052 194.006 27.1052C194.006 27.2318 194.006 27.3583 194.006 27.548V28.6234C194.006 31.3434 194.164 33.3043 194.512 34.7592H193.879V27.0736L193.911 27.1052ZM94.4412 27.1052C94.4412 27.1052 94.5044 27.1052 94.5361 27.1052C94.5361 27.2318 94.5361 27.3583 94.5361 27.548V28.6234C94.5361 31.3434 94.6942 33.3043 95.0421 34.7592H94.4096V27.0736L94.4412 27.1052ZM213.773 34.0001C213.488 32.8931 213.394 31.1536 213.394 29.9834V28.149C213.394 24.9862 212.698 22.4876 211.243 20.5899C213.204 18.5973 214.279 15.9406 214.279 12.8095C214.279 7.33784 210.262 0.94901 198.876 0.94901H178.287H175.124H110.73V4.26993C108.294 2.27738 104.625 0.94901 99.4068 0.94901H75.1166V17.9648L69.4868 2.97319L68.7277 0.917382H46.6515L45.9241 3.03645L42.6348 12.6197C41.3697 8.0969 37.0366 0.189941 22.045 0.189941C5.88322 0.189941 0.126953 10.0895 0.126953 19.3564C0.126953 31.122 8.57159 38.7127 21.6655 38.7127C27.3585 38.7127 31.565 37.5741 34.6646 35.8662L33.9371 37.9536H53.8943L54.4952 35.5499L54.9696 33.589H60.125L60.6626 35.6131L61.2952 37.9536H75.0849H76.9826L77.1091 85.3321H213.71V34.0001H213.773ZM40.0097 20.3053H24.1009L23.5632 22.7722C23.2153 24.2904 23.0255 24.2904 22.1399 24.2904C21.1278 24.2904 20.5902 22.6141 20.5902 19.3248C20.5902 17.4271 20.7799 14.2643 22.1399 14.2643C22.9623 14.2643 23.1204 14.2643 23.3734 15.7825L23.7846 18.4392H40.6739L40.0413 20.3053H40.0097Z" fill="black"/>
<path id="Vector_52" d="M193.784 26.9786C193.784 26.9786 193.847 26.9786 193.879 26.9786C193.879 27.1051 193.879 27.2316 193.879 27.4213V28.4967C193.879 31.2167 194.037 33.1776 194.385 34.6325H193.752V26.9469L193.784 26.9786ZM94.3142 26.9786C94.3142 26.9786 94.3775 26.9786 94.4091 26.9786C94.4091 27.1051 94.4091 27.2316 94.4091 27.4213V28.4967C94.4091 31.2167 94.5673 33.1776 94.9152 34.6325H94.2826V26.9469L94.3142 26.9786ZM213.646 33.8734C213.361 32.7664 213.267 31.0269 213.267 29.8567V28.0223C213.267 24.8595 212.571 22.3609 211.116 20.4632C213.077 18.4707 214.152 15.8139 214.152 12.6828C214.152 7.21115 210.135 0.822324 198.749 0.822324H178.16H174.997H110.603V4.14325C108.167 2.15069 104.498 0.822324 99.2798 0.822324H74.9896V17.8381L69.3599 2.84651L68.6008 0.790696H46.5246L45.7971 2.90976L42.5078 12.493C41.2743 7.90696 36.9413 0 21.9497 0C5.75627 0.0632557 0 9.96277 0 19.2614C0 31.0269 8.44464 38.6176 21.5386 38.6176C27.2316 38.6176 31.4381 37.479 34.5376 35.7711L33.8102 37.8585H53.7673L54.3683 35.4548L54.8427 33.4939H59.998L60.5357 35.5181L61.1683 37.8585H74.958H76.8557L76.9822 85.237H213.583V33.8734H213.646ZM39.8511 20.1786H23.9423L23.4046 22.6455C23.0567 24.1637 22.8669 24.1637 21.9814 24.1637C20.9693 24.1637 20.4316 22.4874 20.4316 19.1981C20.4316 17.3004 20.6214 14.1376 21.9814 14.1376C22.8037 14.1376 22.9618 14.1376 23.2148 15.6558L23.626 18.3125H40.5153L39.8827 20.1786H39.8511Z" fill="black"/>
</g>
<g id="Group_2">
<path id="Vector_53" d="M78.6265 83.5607L78.5 36.2771H212.001V83.5607H78.6265Z" fill="#FFDE3D"/>
<path id="Vector_54" d="M80.1131 37.89H210.388V81.9476H80.2397L80.1131 37.89ZM76.8555 34.6639L77.0136 85.2052H213.614V34.6639H76.8555Z" fill="black"/>
</g>
<g id="Group_3">
<path id="Vector_55" d="M95.5164 53.198H87.7676V46.2715H114.398V53.198H106.713V71.9849H95.4848V53.198H95.5164Z" fill="black"/>
<path id="Vector_56" d="M124.392 68.3162L123.475 71.985H112.5L121.356 46.2716H136.158L145.804 71.985H133.817L132.837 68.3162H124.392ZM130.749 61.3897C130.085 58.6065 129.358 55.6967 128.662 53.293H128.377C127.871 55.6967 126.986 59.0809 126.416 61.3897H130.749Z" fill="black"/>
<path id="Vector_57" d="M146.026 46.2716H157.318V65.0585H170.475L169.304 71.985H146.026V46.2716Z" fill="black"/>
<path id="Vector_58" d="M171.36 46.2716H182.588V56.2344C184.707 52.9451 186.858 49.5609 189.104 46.2716H202.609L192.899 56.6455L203.115 71.985H190.021L185.245 63.066L182.588 65.8809V71.985H171.36V46.2716Z" fill="black"/>
</g>
<g id="Group_4">
<path id="Vector_59" d="M143.022 12.2717V4.01685H113.734V34.6642H142.642L144.192 26.441H126.702V23.2782H142.263V15.0233H126.702V12.2717H143.022Z" fill="white"/>
<path id="Vector_60" d="M174.966 12.2717V4.01685H145.679V34.6642H174.587L176.136 26.441H158.646V23.2782H174.175V15.0233H158.646V12.2717H174.966Z" fill="white"/>
<path id="Vector_61" d="M197.738 34.6642H210.579C210.2 33.1461 210.105 31.0586 210.105 29.8884V28.054C210.105 23.468 208.365 21.3805 205.677 20.2735C208.903 19.1033 210.99 16.5731 210.99 12.7461C210.99 7.93869 207.069 4.04846 198.75 4.04846H177.623V34.6958H190.622V23.8475H193.247C196.347 23.8475 197.074 24.5117 197.074 27.4531V28.56C197.074 31.3117 197.264 33.5256 197.738 34.6958V34.6642ZM194.449 16.7945H190.622V11.7024H194.354C196.41 11.7024 197.707 12.5564 197.707 14.2643C197.707 16.2252 195.967 16.7945 194.449 16.7945Z" fill="white"/>
<path id="Vector_62" d="M52.3765 30.2996H62.4342L63.6044 34.6642H77.9002L66.4193 4.01685H48.8026L38.2705 34.6642H51.3328L52.4082 30.2996H52.3765ZM57.1207 12.3666H57.4686C58.2909 15.2447 59.1765 18.7238 59.9672 22.0447H54.7802C55.4761 19.2615 56.5198 15.2447 57.1207 12.3666Z" fill="white"/>
<path id="Vector_63" d="M21.9184 3.22607C8.50819 3.22607 3.16309 10.6586 3.16309 19.2298C3.16309 28.9395 9.74168 35.4232 21.5389 35.4232C31.47 35.4232 38.1751 31.7228 39.6616 23.3098H26.5044C26.03 25.4921 25.0812 27.3265 21.9817 27.3265C18.0282 27.3265 17.2691 23.1832 17.2691 19.1981C17.2691 13.6316 18.7872 10.9749 21.9817 10.9749C25.1761 10.9749 25.9984 12.9675 26.3463 15.1498H39.7881C39.0607 8.8242 33.9686 3.22607 21.95 3.22607H21.9184Z" fill="white"/>
<path id="Vector_64" d="M98.2374 34.6642H111.078C110.699 33.1461 110.604 31.0586 110.604 29.8884V28.054C110.604 23.468 108.864 21.3805 106.176 20.2735C109.402 19.1033 111.489 16.5731 111.489 12.7461C111.489 7.93869 107.568 4.04846 99.2495 4.04846H78.1221V34.6958H91.1527V23.8475H93.7779C96.8774 23.8475 97.6048 24.5117 97.6048 27.4531V28.56C97.6048 31.3117 97.7946 33.5256 98.269 34.6958L98.2374 34.6642ZM94.9797 16.7945H91.1527V11.7024H94.8848C96.9406 11.7024 98.2374 12.5564 98.2374 14.2643C98.2374 16.2252 96.4978 16.7945 94.9797 16.7945Z" fill="white"/>
</g>
<path id="Vector_65" d="M178.729 88.3684L202.544 102V88.3684H178.729Z" fill="black"/>
</g>
</svg>
