<svg width="427" height="424" viewBox="0 0 427 424" fill="none" xmlns="http://www.w3.org/2000/svg">
<g id="icon1" filter="url(#filter0_d_1480_695)">
<path id="Vector" d="M217.997 301.451C275.314 301.451 321.778 254.987 321.778 197.67C321.778 140.353 275.314 93.8887 217.997 93.8887C160.68 93.8887 114.216 140.353 114.216 197.67C114.216 254.987 160.68 301.451 217.997 301.451Z" fill="#E3D2FF"/>
<path id="Vector_2" fill-rule="evenodd" clip-rule="evenodd" d="M213.025 107.981C259.324 107.981 296.905 145.573 296.905 191.861C296.905 238.15 259.313 275.741 213.025 275.741C166.737 275.741 129.145 238.15 129.145 191.861C129.145 145.573 166.737 107.981 213.025 107.981ZM243.76 23.9536C223.436 20.2293 202.603 20.2293 182.289 23.9536L174.693 58.4767C168.535 60.2436 162.505 62.4443 156.654 65.047L128.637 43.4846C110.683 53.6945 94.7172 67.089 81.5449 83.0016L97.923 114.33C94.3469 119.641 91.1411 125.195 88.3268 130.951L52.9995 132.432C45.805 151.805 42.1865 172.309 42.3241 192.972L75.0063 206.451C75.6835 212.821 76.7943 219.137 78.339 225.358L52.2377 249.206C59.1783 268.663 69.5892 286.702 82.9732 302.445L116.671 291.759C121.284 296.203 126.193 300.329 131.378 304.096L126.712 339.138C144.539 349.58 164.113 356.711 184.48 360.16L203.429 330.314C209.819 330.758 216.231 330.758 222.621 330.314L241.57 360.16C261.937 356.701 281.521 349.58 299.338 339.138L294.672 304.096C299.857 300.329 304.766 296.203 309.379 291.759L343.077 302.445C356.461 286.702 366.872 268.663 373.812 249.206L347.711 225.358C349.255 219.137 350.366 212.821 351.044 206.451L383.726 192.972C383.863 172.309 380.245 151.794 373.05 132.432L337.723 130.951C334.909 125.195 331.703 119.641 328.127 114.33L344.505 83.0016C331.322 67.089 315.367 53.6945 297.413 43.4846L269.396 65.047C263.545 62.4443 257.515 60.2542 251.357 58.4767L243.76 23.9536Z" fill="url(#paint0_linear_1480_695)"/>
</g>
<defs>
<filter id="filter0_d_1480_695" x="-0.000465393" y="1.14441e-05" width="426.051" height="423.642" filterUnits="userSpaceOnUse" color-interpolation-filters="sRGB">
<feFlood flood-opacity="0" result="BackgroundImageFix"/>
<feColorMatrix in="SourceAlpha" type="matrix" values="0 0 0 0 0 0 0 0 0 0 0 0 0 0 0 0 0 0 127 0" result="hardAlpha"/>
<feOffset dy="21.1604"/>
<feGaussianBlur stdDeviation="21.1604"/>
<feComposite in2="hardAlpha" operator="out"/>
<feColorMatrix type="matrix" values="0 0 0 0 0.274937 0 0 0 0 0.073019 0 0 0 0 0.536037 0 0 0 0.61 0"/>
<feBlend mode="normal" in2="BackgroundImageFix" result="effect1_dropShadow_1480_695"/>
<feBlend mode="normal" in="SourceGraphic" in2="effect1_dropShadow_1480_695" result="shape"/>
</filter>
<linearGradient id="paint0_linear_1480_695" x1="213.025" y1="21.1604" x2="213.025" y2="360.16" gradientUnits="userSpaceOnUse">
<stop stop-color="#9F65EA"/>
<stop offset="1" stop-color="#5C27A1"/>
</linearGradient>
</defs>
</svg>
