<svg width="350" height="378" viewBox="0 0 350 378" fill="none" xmlns="http://www.w3.org/2000/svg">
<g id="icon4">
<path id="Vector" d="M289.566 2.81137L31.8763 25.5387C14.2715 27.0914 1.25869 42.6215 2.81137 60.2263L25.5387 317.916C27.0914 335.521 42.6215 348.534 60.2263 346.981L317.916 324.254C335.521 322.701 348.534 307.171 346.981 289.566L324.254 31.8763C322.701 14.2715 307.171 1.25869 289.566 2.81137Z" fill="#F65616"/>
<g id="Vector_2" filter="url(#filter0_d_1480_695)">
<path fill-rule="evenodd" clip-rule="evenodd" d="M162.883 39.0815C87.8936 45.6953 32.4614 111.851 39.0752 186.84C45.6889 261.829 111.895 317.257 186.834 310.647C261.773 304.038 317.255 237.878 310.641 162.889L174.858 174.864L162.883 39.0815Z" fill="url(#paint0_linear_1480_695)"/>
</g>
</g>
<defs>
<filter id="filter0_d_1480_695" x="7.84004" y="39.0815" width="334.036" height="338.801" filterUnits="userSpaceOnUse" color-interpolation-filters="sRGB">
<feFlood flood-opacity="0" result="BackgroundImageFix"/>
<feColorMatrix in="SourceAlpha" type="matrix" values="0 0 0 0 0 0 0 0 0 0 0 0 0 0 0 0 0 0 127 0" result="hardAlpha"/>
<feOffset dy="36"/>
<feGaussianBlur stdDeviation="15.35"/>
<feComposite in2="hardAlpha" operator="out"/>
<feColorMatrix type="matrix" values="0 0 0 0 0 0 0 0 0 0 0 0 0 0 0 0 0 0 0.25 0"/>
<feBlend mode="normal" in2="BackgroundImageFix" result="effect1_dropShadow_1480_695"/>
<feBlend mode="normal" in="SourceGraphic" in2="effect1_dropShadow_1480_695" result="shape"/>
</filter>
<linearGradient id="paint0_linear_1480_695" x1="162.883" y1="39.0815" x2="186.834" y2="310.647" gradientUnits="userSpaceOnUse">
<stop stop-color="#FBB040"/>
<stop offset="1" stop-color="#FF6E3D"/>
</linearGradient>
</defs>
</svg>
