<svg width="429" height="427" viewBox="0 0 429 427" fill="none" xmlns="http://www.w3.org/2000/svg">
<g id="icon2" filter="url(#filter0_d_1480_695)">
<path fill-rule="evenodd" clip-rule="evenodd" d="M199.751 29.8228C202.239 23.8757 208.049 20 214.5 20C220.951 20 226.761 23.8757 229.249 29.8228C241.189 58.4262 256.034 93.9911 256.034 93.9911C256.034 93.9911 291.812 79.2889 320.627 67.4376C326.608 64.9819 333.475 66.3699 338.035 70.9503C342.596 75.5307 343.941 82.4066 341.453 88.375C329.534 116.936 314.774 152.287 314.774 152.287C314.774 152.287 350.328 166.904 379.1 178.723C385.091 181.19 389 187.019 389 193.5C389 199.981 385.091 205.81 379.1 208.277C350.339 220.096 314.774 234.713 314.774 234.713C314.774 234.713 329.534 270.064 341.453 298.625C343.941 304.593 342.596 311.469 338.035 316.05C333.475 320.63 326.608 322.018 320.627 319.562C291.812 307.722 256.034 293.009 256.034 293.009C256.034 293.009 241.189 328.574 229.249 357.177C226.761 363.124 220.951 367 214.5 367C208.049 367 202.239 363.124 199.751 357.177C187.811 328.574 172.966 293.009 172.966 293.009C172.966 293.009 137.188 307.711 108.373 319.562C102.392 322.018 95.5252 320.63 90.9648 316.05C86.4045 311.469 85.0588 304.593 87.5472 298.625C99.4661 270.064 114.226 234.713 114.226 234.713C114.226 234.713 78.6722 220.096 49.9003 208.277C43.9089 205.81 40 199.981 40 193.5C40 187.019 43.9089 181.19 49.9003 178.723C78.6722 166.904 114.226 152.287 114.226 152.287C114.226 152.287 99.4661 116.936 87.5472 88.375C85.0588 82.4066 86.4045 75.5414 90.9648 70.9503C95.5252 66.3699 102.392 64.9819 108.373 67.4376C137.188 79.2783 172.966 93.9911 172.966 93.9911C172.966 93.9911 187.811 58.4262 199.751 29.8228Z" fill="url(#paint0_radial_1480_695)"/>
</g>
<defs>
<filter id="filter0_d_1480_695" x="0" y="0" width="429" height="427" filterUnits="userSpaceOnUse" color-interpolation-filters="sRGB">
<feFlood flood-opacity="0" result="BackgroundImageFix"/>
<feColorMatrix in="SourceAlpha" type="matrix" values="0 0 0 0 0 0 0 0 0 0 0 0 0 0 0 0 0 0 127 0" result="hardAlpha"/>
<feOffset dy="20"/>
<feGaussianBlur stdDeviation="20"/>
<feComposite in2="hardAlpha" operator="out"/>
<feColorMatrix type="matrix" values="0 0 0 0 0.62851 0 0 0 0 0.521599 0 0 0 0 0 0 0 0 0.15 0"/>
<feBlend mode="normal" in2="BackgroundImageFix" result="effect1_dropShadow_1480_695"/>
<feBlend mode="normal" in="SourceGraphic" in2="effect1_dropShadow_1480_695" result="shape"/>
</filter>
<radialGradient id="paint0_radial_1480_695" cx="0" cy="0" r="1" gradientUnits="userSpaceOnUse" gradientTransform="translate(174 102.5) rotate(81.6397) scale(281.987 283.612)">
<stop stop-color="#FFE97B"/>
<stop offset="1" stop-color="#FFC53D"/>
</radialGradient>
</defs>
</svg>
