<svg width="102" height="102" viewBox="0 0 102 102" fill="none" xmlns="http://www.w3.org/2000/svg">
<g id="RevoU-logo">
<path id="Vector" d="M51 102C79.1665 102 102 79.1665 102 51C102 22.8335 79.1665 0 51 0C22.8335 0 0 22.8335 0 51C0 79.1665 22.8335 102 51 102Z" fill="#FFDE3D"/>
<g id="Group">
<path id="Fill-1" opacity="0.1" fill-rule="evenodd" clip-rule="evenodd" d="M66.9026 71.5639C65.0806 74.5286 62.9554 76.9812 60.5269 78.9216C58.1934 80.8168 55.4798 82.1882 52.5699 82.9431C49.6859 83.6836 46.6185 83.7525 43.3675 83.15C40.1165 82.5474 36.7855 81.1809 33.3744 79.0505C29.9191 76.8875 27.203 74.4694 25.2261 71.7963C23.2492 69.1231 21.9478 66.3211 21.3218 63.3903C20.7002 60.4277 20.7148 57.3669 21.3648 54.4104C22.0155 51.3611 23.2518 48.3529 25.0738 45.3856L44.0019 14.6606L54.934 21.4932L36.2772 51.7906C35.358 53.2521 34.7087 54.8667 34.3602 56.5578C34.039 58.1128 34.0244 59.7155 34.3173 61.2761C34.6125 62.8044 35.2243 64.2541 36.1133 65.5318C37.0456 66.8749 38.2468 68.0097 39.6408 68.8641C41.0007 69.7391 42.5313 70.3147 44.1308 70.5527C45.6488 70.7779 47.1972 70.6849 48.6773 70.2794C50.1941 69.85 51.6116 69.1263 52.8491 68.1496C54.2009 67.0819 55.3484 65.7783 56.2361 64.3019L74.8928 34.0045L85.8248 40.8371L66.9026 71.5639Z" fill="black"/>
</g>
<path id="Fill-4" fill-rule="evenodd" clip-rule="evenodd" d="M29.4459 32.966H32.2472C32.6748 32.966 33.1257 32.9524 33.604 32.9211C34.0473 32.8974 34.4841 32.8038 34.8982 32.6439C35.2771 32.4951 35.6085 32.2462 35.8568 31.9236C36.1105 31.5956 36.2374 31.1349 36.2374 30.5415C36.2617 30.0777 36.1446 29.6176 35.9017 29.2218C35.6876 28.9015 35.3944 28.642 35.0505 28.4683C34.6763 28.2862 34.2746 28.1668 33.8617 28.1149C33.4276 28.0549 32.99 28.0243 32.5518 28.0232H29.4459V32.966ZM24.6963 23.9705H33.0398C34.0895 23.9655 35.1367 24.0735 36.1632 24.2926C37.0869 24.4825 37.9656 24.8476 38.7518 25.3682C39.5032 25.8827 40.1112 26.5801 40.5185 27.3946C40.9532 28.2431 41.1712 29.3025 41.1725 30.5727C41.1725 32.1071 40.7768 33.4118 39.9856 34.4868C39.1943 35.5617 38.036 36.2411 36.5107 36.5248L41.9924 45.6999H36.2979L31.7904 37.0207H29.4478V45.7097H24.6963V23.9705Z" fill="black" fill-opacity="0.3"/>
<path id="Fill-6" fill-rule="evenodd" clip-rule="evenodd" d="M22.5645 56.4543H27.9856L33.315 70.7012H33.3755L38.7966 56.4543H43.882L34.9899 78.1935H31.1832L22.5645 56.4543Z" fill="black" fill-opacity="0.3"/>
<path id="Fill-8" fill-rule="evenodd" clip-rule="evenodd" d="M61.3953 67.3239C61.3832 68.281 61.5432 69.2325 61.8677 70.133C62.164 70.9548 62.625 71.7075 63.2225 72.3448C63.8176 72.9742 64.5386 73.4711 65.3386 73.8031C67.1098 74.4981 69.0783 74.4981 70.8495 73.8031C71.6501 73.4711 72.3719 72.9743 72.9676 72.3448C73.5638 71.7065 74.0246 70.9541 74.3224 70.133C74.9523 68.3186 74.9523 66.3448 74.3224 64.5304C74.0266 63.7043 73.5656 62.9471 72.9676 62.3049C72.3714 61.6755 71.6499 61.178 70.8495 60.8447C69.0783 60.1496 67.1098 60.1496 65.3386 60.8447C64.5389 61.1781 63.818 61.6755 63.2225 62.3049C62.6232 62.9461 62.162 63.7036 61.8677 64.5304C61.5459 65.4262 61.386 66.3721 61.3953 67.3239ZM56.4622 67.3239C56.4395 65.7064 56.734 64.1001 57.3289 62.5958C57.8733 61.2365 58.6981 60.0072 59.7496 58.9882C60.8084 57.9811 62.0629 57.2024 63.4353 56.7003C66.4506 55.6357 69.7395 55.6357 72.7548 56.7003C74.1266 57.2024 75.3804 57.9812 76.4386 58.9882C77.4906 60.0067 78.3155 61.2361 78.8592 62.5958C80.0174 65.6415 80.0174 69.0063 78.8592 72.052C78.316 73.4125 77.4911 74.6426 76.4386 75.6615C75.3803 76.668 74.1265 77.4461 72.7548 77.9475C69.7395 79.0121 66.4506 79.0121 63.4353 77.9475C62.0631 77.4461 60.8085 76.668 59.7496 75.6615C58.6977 74.6421 57.8728 73.4121 57.3289 72.052C56.7337 70.5478 56.4392 68.9414 56.4622 67.3239Z" fill="black" fill-opacity="0.3"/>
<g id="Group_2">
<path id="Fill-10" fill-rule="evenodd" clip-rule="evenodd" d="M57.9629 28.4136H77.4337V23.9705H57.9629V28.4136Z" fill="black" fill-opacity="0.3"/>
</g>
<g id="Group_3">
<path id="Fill-12" fill-rule="evenodd" clip-rule="evenodd" d="M57.9629 36.8645H77.4337V32.4194H57.9629V36.8645Z" fill="black" fill-opacity="0.3"/>
</g>
<g id="Group_4">
<path id="Fill-13" fill-rule="evenodd" clip-rule="evenodd" d="M57.9629 45.3153H77.4337V40.8702H57.9629V45.3153Z" fill="black" fill-opacity="0.3"/>
</g>
<g id="Group_5">
<path id="Fill-14" fill-rule="evenodd" clip-rule="evenodd" d="M67.9268 45.3153H77.4337V40.8702H70.6637L67.9268 45.3153Z" fill="black"/>
</g>
<g id="Group_6">
<path id="Fill-15" fill-rule="evenodd" clip-rule="evenodd" d="M72.7546 56.7003C69.7392 55.6357 66.4503 55.6357 63.435 56.7003C62.0627 57.2024 60.8082 57.9811 59.7493 58.9882C59.4997 59.2278 59.2631 59.4806 59.0407 59.7456L57.438 62.3479C57.4009 62.4299 57.3638 62.5118 57.3287 62.5958C56.173 65.6419 56.173 69.0059 57.3287 72.052C58.2486 74.3837 59.9959 76.2944 62.2364 77.4185C63.3845 76.3102 64.436 75.1059 65.3794 73.8187L65.3383 73.8031C64.5383 73.4711 63.8173 72.9742 63.2222 72.3448C62.6211 71.7081 62.1562 70.9555 61.8557 70.1331C61.2285 68.3182 61.2285 66.3453 61.8557 64.5304C62.1545 63.703 62.6196 62.9457 63.2222 62.3049C63.8177 61.6755 64.5386 61.1781 65.3383 60.8447C67.1103 60.1497 69.0793 60.1497 70.8512 60.8447C71.5513 61.138 72.1923 61.556 72.7429 62.0785L75.2475 58.0102C74.476 57.4686 73.6382 57.0283 72.7546 56.7003Z" fill="black"/>
</g>
<g id="Group_7">
<path id="Fill-16" fill-rule="evenodd" clip-rule="evenodd" d="M30.8318 77.3111C31.2223 77.6098 31.642 77.8968 32.0675 78.1935H34.9958L38.9879 68.4328C37.8672 67.6465 36.895 66.6676 36.1163 65.5416C35.9445 65.2917 35.7864 65.0341 35.6361 64.7764L33.3833 70.6972H33.3208L27.9914 56.4465H22.5645L30.8318 77.3111Z" fill="black"/>
</g>
<g id="Group_8">
<path id="Fill-17" fill-rule="evenodd" clip-rule="evenodd" d="M29.446 45.7097V38.3052L25.0849 45.3876C25.0185 45.495 24.956 45.6023 24.8896 45.7097H29.446Z" fill="black"/>
</g>
<g id="Group_9">
<path id="Fill-18" fill-rule="evenodd" clip-rule="evenodd" d="M40.0274 45.7097L41.0249 44.0875L36.5115 36.5248C38.0342 36.2385 39.1918 35.5578 39.9844 34.4829C40.777 33.4079 41.1726 32.1032 41.1713 30.5688C41.1713 29.2999 40.9533 28.2405 40.5173 27.3907C40.1107 26.5758 39.5026 25.8782 38.7507 25.3643C38.435 25.1518 38.102 24.9663 37.755 24.8099L35.3773 28.6752C35.5824 28.826 35.76 29.0109 35.9025 29.2218C36.1454 29.6176 36.2625 30.0777 36.2382 30.5415C36.2382 31.1349 36.1113 31.5956 35.8576 31.9236C35.6093 32.2462 35.2779 32.4952 34.899 32.6439C34.4849 32.8038 34.0481 32.8974 33.6048 32.9211C33.3041 32.9407 33.0191 32.9504 32.74 32.9582L30.2393 37.0207H31.801L36.3085 45.7097H40.0274Z" fill="black"/>
</g>
<g id="Group_10">
<path id="Fill-19" fill-rule="evenodd" clip-rule="evenodd" d="M73.1299 36.8644H77.4344V35.5916L74.8927 34.0026L73.1299 36.8644Z" fill="black"/>
</g>
</g>
</svg>
