<svg viewBox="459.14 -24.06 458.40 458.40" fill="none" xmlns="http://www.w3.org/2000/svg">
<defs><linearGradient id="ctPac" x1="676.331" y1="69.3303" x2="700.282" y2="340.896" gradientUnits="userSpaceOnUse"><stop stop-color="#FBB040"/><stop offset="1" stop-color="#FF6E3D"/></linearGradient></defs>
<path d="M803.014 33.0602L545.325 55.7875C527.72 57.3402 514.707 72.8703 516.26 90.4751L538.987 348.165C540.54 365.77 556.07 378.782 573.675 377.23L831.364 354.502C848.969 352.95 861.982 337.42 860.429 319.815L837.702 62.1251C836.149 44.5203 820.619 31.5075 803.014 33.0602Z" fill="#F65616"/>
<path fill-rule="evenodd" clip-rule="evenodd" d="M676.331 69.3303C601.342 75.9441 545.91 142.1 552.523 217.089C559.137 292.078 625.343 347.506 700.282 340.896C775.221 334.287 830.703 268.127 824.089 193.138L688.306 205.113L676.331 69.3303Z" fill="url(#ctPac)"/>
</svg>
