<svg viewBox="753.20 -4.67 451.01 451.01" fill="none" xmlns="http://www.w3.org/2000/svg">
<defs><linearGradient id="ctGear" x1="978.705" y1="51.8" x2="978.705" y2="390.8" gradientUnits="userSpaceOnUse"><stop stop-color="#9F65EA"/><stop offset="1" stop-color="#5C27A1"/></linearGradient></defs>
<path d="M983.677 332.091C1040.99 332.091 1087.46 285.626 1087.46 228.309C1087.46 170.993 1040.99 124.528 983.677 124.528C926.36 124.528 879.896 170.993 879.896 228.309C879.896 285.626 926.36 332.091 983.677 332.091Z" fill="#E3D2FF"/>
<path fill-rule="evenodd" clip-rule="evenodd" d="M978.705 138.621C1025 138.621 1062.58 176.213 1062.58 222.501C1062.58 268.789 1024.99 306.381 978.705 306.381C932.416 306.381 894.825 268.789 894.825 222.501C894.825 176.213 932.416 138.621 978.705 138.621ZM1009.44 54.5932C989.115 50.869 968.283 50.869 947.969 54.5932L940.373 89.1164C934.215 90.8833 928.184 93.084 922.333 95.6867L894.317 74.1243C876.362 84.3341 860.397 97.7287 847.225 113.641L863.603 144.969C860.027 150.281 856.821 155.835 854.006 161.591L818.679 163.072C811.485 182.444 807.866 202.949 808.004 223.612L840.686 237.091C841.363 243.46 842.474 249.777 844.019 255.998L817.917 279.846C824.858 299.303 835.269 317.342 848.653 333.085L882.351 322.399C886.964 326.843 891.873 330.969 897.057 334.736L892.391 369.777C910.219 380.22 929.792 387.351 950.159 390.8L969.108 360.953C975.499 361.398 981.91 361.398 988.301 360.953L1007.25 390.8C1027.62 387.34 1047.2 380.22 1065.02 369.777L1060.35 334.736C1065.54 330.969 1070.45 326.843 1075.06 322.399L1108.76 333.085C1122.14 317.342 1132.55 299.303 1139.49 279.846L1113.39 255.998C1114.94 249.777 1116.05 243.46 1116.72 237.091L1149.41 223.612C1149.54 202.949 1145.92 182.434 1138.73 163.072L1103.4 161.591C1100.59 155.835 1097.38 150.281 1093.81 144.969L1110.18 113.641C1097 97.7287 1081.05 84.3341 1063.09 74.1243L1035.08 95.6867C1029.23 93.084 1023.19 90.8939 1017.04 89.1164L1009.44 54.5932Z" fill="url(#ctGear)"/>
</svg>
