<svg viewBox="-158.84 9.96 460.68 460.68" fill="none" xmlns="http://www.w3.org/2000/svg">
<defs><radialGradient id="ctStar" cx="0" cy="0" r="1" gradientUnits="userSpaceOnUse" gradientTransform="translate(31 149.3) rotate(81.6397) scale(281.987 283.612)"><stop stop-color="#FFE97B"/><stop offset="1" stop-color="#FFC53D"/></radialGradient></defs>
<path d="M56.751 76.6228C59.2394 70.6758 65.0493 66.8 71.5 66.8C77.9507 66.8 83.7606 70.6758 86.249 76.6228C98.1892 105.226 113.034 140.791 113.034 140.791C113.034 140.791 148.812 126.089 177.627 114.238C183.608 111.782 190.475 113.17 195.035 117.75C199.596 122.331 200.941 129.207 198.453 135.175C186.534 163.736 171.774 199.087 171.774 199.087C171.774 199.087 207.328 213.704 236.1 225.523C242.091 227.99 246 233.819 246 240.3C246 246.781 242.091 252.611 236.1 255.077C207.339 266.896 171.774 281.513 171.774 281.513C171.774 281.513 186.534 316.864 198.453 345.425C200.941 351.393 199.596 358.269 195.035 362.85C190.475 367.43 183.608 368.818 177.627 366.362C148.812 354.522 113.034 339.809 113.034 339.809C113.034 339.809 98.1892 375.374 86.249 403.977C83.7606 409.924 77.9507 413.8 71.5 413.8C65.0493 413.8 59.2394 409.924 56.751 403.977C44.8108 375.374 29.9656 339.809 29.9656 339.809C29.9656 339.809 -5.81229 354.511 -34.6268 366.362C-40.6076 368.818 -47.4748 367.43 -52.0352 362.85C-56.5955 358.269 -57.9412 351.393 -55.4528 345.425C-43.5339 316.864 -28.7742 281.513 -28.7742 281.513C-28.7742 281.513 -64.3278 266.896 -93.0997 255.077C-99.0911 252.611 -103 246.781 -103 240.3C-103 233.819 -99.0911 227.99 -93.0997 225.523C-64.3278 213.704 -28.7742 199.087 -28.7742 199.087C-28.7742 199.087 -43.5339 163.736 -55.4528 135.175C-57.9412 129.207 -56.5955 122.341 -52.0352 117.75C-47.4748 113.17 -40.6076 111.782 -34.6268 114.238C-5.81229 126.078 29.9656 140.791 29.9656 140.791C29.9656 140.791 44.8108 105.226 56.751 76.6228Z" fill="url(#ctStar)"/>
</svg>
