<svg width="1080" height="356" viewBox="0 0 1080 356" fill="none" xmlns="http://www.w3.org/2000/svg">
<g id="Group 257">
<g id="icon4">
<path id="Vector" d="M803.014 33.0602L545.325 55.7875C527.72 57.3402 514.707 72.8703 516.26 90.4751L538.987 348.165C540.54 365.77 556.07 378.782 573.675 377.23L831.364 354.502C848.969 352.95 861.982 337.42 860.429 319.815L837.702 62.1251C836.149 44.5203 820.619 31.5075 803.014 33.0602Z" fill="#F65616"/>
<g id="Vector_2" filter="url(#filter0_d_1480_695)">
<path fill-rule="evenodd" clip-rule="evenodd" d="M676.331 69.3303C601.342 75.9441 545.91 142.1 552.523 217.089C559.137 292.078 625.343 347.506 700.282 340.896C775.221 334.287 830.703 268.127 824.089 193.138L688.306 205.113L676.331 69.3303Z" fill="url(#paint1_linear_1480_695)"/>
</g>
</g>
<g id="Group 258">
<path id="icon5" d="M506.923 67.0796L251.704 24.8492C234.268 21.9641 217.794 33.7599 214.909 51.1959L172.678 306.416C169.793 323.852 181.589 340.325 199.025 343.21L454.245 385.441C471.681 388.326 488.155 376.53 491.04 359.094L533.27 103.874C536.155 86.4382 524.359 69.9647 506.923 67.0796Z" fill="url(#paint2_linear_1480_695)"/>
<g id="icon3">
<g id="Union" filter="url(#filter1_d_1480_695)">
<path d="M347.59 210.07C434.37 187.91 522.69 240.29 544.851 327.07L387.72 367.2L230.59 407.33C208.43 320.55 260.81 232.23 347.59 210.07ZM464.6 12.8C486.76 99.58 434.38 187.9 347.6 210.06C260.82 232.22 172.5 179.84 150.34 93.0598L464.6 12.8Z" fill="url(#paint3_radial_1480_695)"/>
</g>
</g>
</g>
<g id="icon2" filter="url(#filter2_d_1480_695)">
<path fill-rule="evenodd" clip-rule="evenodd" d="M56.751 76.6228C59.2394 70.6758 65.0493 66.8 71.5 66.8C77.9507 66.8 83.7606 70.6758 86.249 76.6228C98.1892 105.226 113.034 140.791 113.034 140.791C113.034 140.791 148.812 126.089 177.627 114.238C183.608 111.782 190.475 113.17 195.035 117.75C199.596 122.331 200.941 129.207 198.453 135.175C186.534 163.736 171.774 199.087 171.774 199.087C171.774 199.087 207.328 213.704 236.1 225.523C242.091 227.99 246 233.819 246 240.3C246 246.781 242.091 252.611 236.1 255.077C207.339 266.896 171.774 281.513 171.774 281.513C171.774 281.513 186.534 316.864 198.453 345.425C200.941 351.393 199.596 358.269 195.035 362.85C190.475 367.43 183.608 368.818 177.627 366.362C148.812 354.522 113.034 339.809 113.034 339.809C113.034 339.809 98.1892 375.374 86.249 403.977C83.7606 409.924 77.9507 413.8 71.5 413.8C65.0493 413.8 59.2394 409.924 56.751 403.977C44.8108 375.374 29.9656 339.809 29.9656 339.809C29.9656 339.809 -5.81229 354.511 -34.6268 366.362C-40.6076 368.818 -47.4748 367.43 -52.0352 362.85C-56.5955 358.269 -57.9412 351.393 -55.4528 345.425C-43.5339 316.864 -28.7742 281.513 -28.7742 281.513C-28.7742 281.513 -64.3278 266.896 -93.0997 255.077C-99.0911 252.611 -103 246.781 -103 240.3C-103 233.819 -99.0911 227.99 -93.0997 225.523C-64.3278 213.704 -28.7742 199.087 -28.7742 199.087C-28.7742 199.087 -43.5339 163.736 -55.4528 135.175C-57.9412 129.207 -56.5955 122.341 -52.0352 117.75C-47.4748 113.17 -40.6076 111.782 -34.6268 114.238C-5.81229 126.078 29.9656 140.791 29.9656 140.791C29.9656 140.791 44.8108 105.226 56.751 76.6228Z" fill="url(#paint4_radial_1480_695)"/>
</g>
<g id="icon1" filter="url(#filter3_d_1480_695)">
<path id="Vector_3" d="M983.677 332.091C1040.99 332.091 1087.46 285.626 1087.46 228.309C1087.46 170.993 1040.99 124.528 983.677 124.528C926.36 124.528 879.896 170.993 879.896 228.309C879.896 285.626 926.36 332.091 983.677 332.091Z" fill="#E3D2FF"/>
<path id="Vector_4" fill-rule="evenodd" clip-rule="evenodd" d="M978.705 138.621C1025 138.621 1062.58 176.213 1062.58 222.501C1062.58 268.789 1024.99 306.381 978.705 306.381C932.416 306.381 894.825 268.789 894.825 222.501C894.825 176.213 932.416 138.621 978.705 138.621ZM1009.44 54.5932C989.115 50.869 968.283 50.869 947.969 54.5932L940.373 89.1164C934.215 90.8833 928.184 93.084 922.333 95.6867L894.317 74.1243C876.362 84.3341 860.397 97.7287 847.225 113.641L863.603 144.969C860.027 150.281 856.821 155.835 854.006 161.591L818.679 163.072C811.485 182.444 807.866 202.949 808.004 223.612L840.686 237.091C841.363 243.46 842.474 249.777 844.019 255.998L817.917 279.846C824.858 299.303 835.269 317.342 848.653 333.085L882.351 322.399C886.964 326.843 891.873 330.969 897.057 334.736L892.391 369.777C910.219 380.22 929.792 387.351 950.159 390.8L969.108 360.953C975.499 361.398 981.91 361.398 988.301 360.953L1007.25 390.8C1027.62 387.34 1047.2 380.22 1065.02 369.777L1060.35 334.736C1065.54 330.969 1070.45 326.843 1075.06 322.399L1108.76 333.085C1122.14 317.342 1132.55 299.303 1139.49 279.846L1113.39 255.998C1114.94 249.777 1116.05 243.46 1116.72 237.091L1149.41 223.612C1149.54 202.949 1145.92 182.434 1138.73 163.072L1103.4 161.591C1100.59 155.835 1097.38 150.281 1093.81 144.969L1110.18 113.641C1097 97.7287 1081.05 84.3341 1063.09 74.1243L1035.08 95.6867C1029.23 93.084 1023.19 90.8939 1017.04 89.1164L1009.44 54.5932Z" fill="url(#paint5_linear_1480_695)"/>
</g>
</g>
<defs>
<filter id="filter0_d_1480_695" x="521.288" y="69.3303" width="334.036" height="338.801" filterUnits="userSpaceOnUse" color-interpolation-filters="sRGB">
<feFlood flood-opacity="0" result="BackgroundImageFix"/>
<feColorMatrix in="SourceAlpha" type="matrix" values="0 0 0 0 0 0 0 0 0 0 0 0 0 0 0 0 0 0 127 0" result="hardAlpha"/>
<feOffset dy="36"/>
<feGaussianBlur stdDeviation="15.35"/>
<feComposite in2="hardAlpha" operator="out"/>
<feColorMatrix type="matrix" values="0 0 0 0 0 0 0 0 0 0 0 0 0 0 0 0 0 0 0.25 0"/>
<feBlend mode="normal" in2="BackgroundImageFix" result="effect1_dropShadow_1480_695"/>
<feBlend mode="normal" in="SourceGraphic" in2="effect1_dropShadow_1480_695" result="shape"/>
</filter>
<filter id="filter1_d_1480_695" x="107.54" y="4.95911e-05" width="480.111" height="480.13" filterUnits="userSpaceOnUse" color-interpolation-filters="sRGB">
<feFlood flood-opacity="0" result="BackgroundImageFix"/>
<feColorMatrix in="SourceAlpha" type="matrix" values="0 0 0 0 0 0 0 0 0 0 0 0 0 0 0 0 0 0 127 0" result="hardAlpha"/>
<feOffset dy="30"/>
<feGaussianBlur stdDeviation="21.4"/>
<feComposite in2="hardAlpha" operator="out"/>
<feColorMatrix type="matrix" values="0 0 0 0 0.616815 0 0 0 0 0 0 0 0 0 0.254996 0 0 0 0.36 0"/>
<feBlend mode="normal" in2="BackgroundImageFix" result="effect1_dropShadow_1480_695"/>
<feBlend mode="normal" in="SourceGraphic" in2="effect1_dropShadow_1480_695" result="shape"/>
</filter>
<filter id="filter2_d_1480_695" x="-143" y="46.8" width="429" height="427" filterUnits="userSpaceOnUse" color-interpolation-filters="sRGB">
<feFlood flood-opacity="0" result="BackgroundImageFix"/>
<feColorMatrix in="SourceAlpha" type="matrix" values="0 0 0 0 0 0 0 0 0 0 0 0 0 0 0 0 0 0 127 0" result="hardAlpha"/>
<feOffset dy="20"/>
<feGaussianBlur stdDeviation="20"/>
<feComposite in2="hardAlpha" operator="out"/>
<feColorMatrix type="matrix" values="0 0 0 0 0.62851 0 0 0 0 0.521599 0 0 0 0 0 0 0 0 0.15 0"/>
<feBlend mode="normal" in2="BackgroundImageFix" result="effect1_dropShadow_1480_695"/>
<feBlend mode="normal" in="SourceGraphic" in2="effect1_dropShadow_1480_695" result="shape"/>
</filter>
<filter id="filter3_d_1480_695" x="765.679" y="30.6397" width="426.051" height="423.642" filterUnits="userSpaceOnUse" color-interpolation-filters="sRGB">
<feFlood flood-opacity="0" result="BackgroundImageFix"/>
<feColorMatrix in="SourceAlpha" type="matrix" values="0 0 0 0 0 0 0 0 0 0 0 0 0 0 0 0 0 0 127 0" result="hardAlpha"/>
<feOffset dy="21.1604"/>
<feGaussianBlur stdDeviation="21.1604"/>
<feComposite in2="hardAlpha" operator="out"/>
<feColorMatrix type="matrix" values="0 0 0 0 0.274937 0 0 0 0 0.073019 0 0 0 0 0.536037 0 0 0 0.61 0"/>
<feBlend mode="normal" in2="BackgroundImageFix" result="effect1_dropShadow_1480_695"/>
<feBlend mode="normal" in="SourceGraphic" in2="effect1_dropShadow_1480_695" result="shape"/>
</filter>
<linearGradient id="paint1_linear_1480_695" x1="676.331" y1="69.3303" x2="700.282" y2="340.896" gradientUnits="userSpaceOnUse">
<stop stop-color="#FBB040"/>
<stop offset="1" stop-color="#FF6E3D"/>
</linearGradient>
<linearGradient id="paint2_linear_1480_695" x1="379.313" y1="45.9644" x2="326.635" y2="364.326" gradientUnits="userSpaceOnUse">
<stop stop-color="#FFB5E5"/>
<stop offset="1" stop-color="#FF7DD1"/>
</linearGradient>
<radialGradient id="paint3_radial_1480_695" cx="0" cy="0" r="1" gradientUnits="userSpaceOnUse" gradientTransform="translate(282.5 75.3) rotate(71.4802) scale(533.635 533.609)">
<stop stop-color="#EA3781"/>
<stop offset="1" stop-color="#C90A59"/>
</radialGradient>
<radialGradient id="paint4_radial_1480_695" cx="0" cy="0" r="1" gradientUnits="userSpaceOnUse" gradientTransform="translate(31 149.3) rotate(81.6397) scale(281.987 283.612)">
<stop stop-color="#FFE97B"/>
<stop offset="1" stop-color="#FFC53D"/>
</radialGradient>
<linearGradient id="paint5_linear_1480_695" x1="978.705" y1="51.8" x2="978.705" y2="390.8" gradientUnits="userSpaceOnUse">
<stop stop-color="#9F65EA"/>
<stop offset="1" stop-color="#5C27A1"/>
</linearGradient>
</defs>
</svg>
